<?xml version="1.0" encoding="utf-8"?>
<!-- Generator: Adobe Illustrator 26.0.1, SVG Export Plug-In . SVG Version: 6.00 Build 0)  -->
<svg version="1.1" id="Camada_1" xmlns="http://www.w3.org/2000/svg" xmlns:xlink="http://www.w3.org/1999/xlink" x="0px" y="0px"
	 viewBox="0 0 1283.8 740.4" style="enable-background:new 0 0 1283.8 740.4;" xml:space="preserve">
<style type="text/css">
	.st0{fill:#F2922A;}
	.st1{fill:#575757;}
	.st2{clip-path:url(#SVGID_00000067230551606470598110000012512962614914180528_);}
</style>
<path class="st0" d="M996.3,10.2H686.4c-18.7,0-33.9,15.2-33.9,33.9v309.9c0,18.7,15.2,33.9,33.9,33.9h309.9
	c18.7-0.1,33.9-15.2,33.9-33.9V44.1C1030.2,25.4,1015,10.3,996.3,10.2z M998.1,336c0,10.9-8.9,19.8-19.8,19.8h-4.7l-12.3,21.6
	l-12.7-21.6H704.5c-10.9,0-19.8-8.9-19.8-19.8V62.2c0-10.9,8.9-19.8,19.8-19.8h273.8c10.9,0,19.8,8.9,19.8,19.8L998.1,336z"/>
<path class="st0" d="M652.3,416.5h82c49.7,0,79.3,16.6,79.3,72.2c0,40.2-16.6,58.8-39.8,66.3c27.6,7.1,45.8,27.6,45.8,74.2
	c0,62.3-33.1,79.7-82.8,79.7h-84.4V416.5z M734,547.1c36.7,0,60-11.4,60-56.4s-23.3-56.4-60-56.4h-61.9v112.8H734z M736.8,691.1
	c37.1,0,63.1-12.6,63.1-63.1c0-50.1-26-62.7-63.1-62.7h-64.7v125.8L736.8,691.1z"/>
<path class="st0" d="M840.5,562.8c0-82.5,9.5-149.5,103.4-149.5c93.1,0,103,67.1,103,149.5c0,82-9.5,149.1-103,149.1
	C850,712,840.5,644.9,840.5,562.8z M1027.1,563.2c0-73.4-7.9-131-83.2-131c-76.5,0-83.6,57.6-83.6,131s7.1,130.2,83.6,130.2
	C1020,693.4,1027.1,636.6,1027.1,563.2L1027.1,563.2z"/>
<path class="st0" d="M1145,574.3l-70.6,134.5h-20.9l82.1-152.7l-75-139.6h21.3l65.1,121.9l64.3-121.9h20.6l-75,140l82,152.3h-21.3
	L1145,574.3z"/>
<path class="st1" d="M0,593.5c0-71.6,19.8-118.1,101.1-118.1c81.7,0,100.7,47.3,100.7,118.1c0,73.6-19,118.9-100.7,118.9
	C20.6,712.4,0,665.9,0,593.5z M140.3,595.5c0-40-4-63.1-39.2-63.1s-39.2,23.1-39.2,63.1c0,39.6,4,63.5,39.2,63.5
	S140.3,635.1,140.3,595.5L140.3,595.5z"/>
<path class="st1" d="M221.6,483.1l48.9-4l4.5,18.2c10.9-13.8,30.3-21.8,69.6-21.8c56.2,0,67.1,35.6,67.1,83.3v150h-61.5V574.1
	c0-27.1-3.2-40.4-29.5-40.4c-32.8,0-38,15.8-38,48.9v126.2h-61.1V483.1z"/>
<path class="st1" d="M429.9,593.5c0-73.2,21.4-118.1,99.1-118.1c90.6,0,87.7,61.1,86.5,146H488.9c2.4,27.1,11.3,38,41.7,38
	s45.7-6.5,60.2-13.3l23,46.5c-21.8,11.7-48.1,19-86.5,19C446.5,711.5,429.9,667.9,429.9,593.5z M488.5,574.1h73.2
	c-0.8-30.3-2.8-45.3-34.4-45.3C497.4,528.8,490.1,543.3,488.5,574.1z"/>
<g>
	<defs>
		<path id="SVGID_1_" d="M838.9,324h-75.4c-13.3,0-23.9-9.4-25.5-22.7c-1-8.7-0.8-17.5,0.7-26.2c1.8-10.9,8.4-18.7,17.7-24
			c8.2-4.7,16.9-8.5,25.4-12.7c9.7-4.8,19.4-9.5,28.9-14.4c4.6-2.4,7.5-9.2,6.5-14.2c-0.3-0.9-0.9-1.7-1.7-2.3
			c-12.5-9.4-19.8-22.1-23.8-36.9c-0.5-1.8-1.5-3.4-2.9-4.6c-6.2-5.5-10-18.4-5.1-24.9s2.5-12.2,2.3-18.3c-0.2-8,0.2-15.9,3.3-23.4
			c1.9-4.6,4.9-8.1,9.8-9.6c0.9-0.2,1.6-0.8,2.1-1.5c3.5-8.2,10.3-11.9,18.4-13.5c16.5-3.3,32.8-2.6,48.6,3.9
			c12.8,5.3,19.8,14.6,21.9,28.1c1.5,9.1,1.8,18.3,0.8,27.4c-0.1,0.8,0.1,1.5,0.6,2.1c6.5,5.1,5.9,11.9,4.6,18.8
			c-0.8,5.2-3.9,9.7-8.3,12.5c-0.9,0.7-1.6,1.7-1.8,2.9c-4,15.1-11.5,27.9-24.2,37.3c-0.7,0.5-1.2,1.3-1.3,2.1
			c0.1,5.4,0.9,11.6,7.1,14.5c14.5,6.9,29,13.7,43.2,20.9c6.1,3.1,11.9,6.8,17.3,11c7.3,5.6,10.7,13.6,11.4,22.6
			c0.6,7.4,0.6,14.9,0.1,22.3c-1.1,13.2-12,22.9-25.2,22.9C889.3,324,864.1,324,838.9,324z"/>
	</defs>
	<clipPath id="SVGID_00000145038239574247196580000000872674778135325630_">
		<use xlink:href="#SVGID_1_"  style="overflow:visible;"/>
	</clipPath>
	<g style="clip-path:url(#SVGID_00000145038239574247196580000000872674778135325630_);">
		<path class="st0" d="M1069.1,182.6c-4.3-9.2-9.3-18.1-14.9-26.7c-5-7.7-11-14.7-17-21.7c-4.3-5.2-9.1-10-14.3-14.4
			c-6.7-5.6-13.9-10.7-21.4-15.2c-10.2-6-20.6-11.6-31.3-16.6c-12.1-5.6-24.4-10.6-36.8-15.5c-6.7-2.7-13.7-4.8-20.8-6.4
			c-11.7-2.4-23.5-4-35.2-6.1c-6.5-1.2-12.9-3.5-19.4-4.2c-22.5-2.4-44.6-0.9-66.2,6.7c-11.1,3.8-21.9,8.4-32.2,13.8
			c-8.1,4.3-15.7,9.6-23.5,14.6c-2.2,1.4-4.3,2.9-6.4,4.4c-5.2,3.7-11,7-15.6,11.4c-7.2,6.8-13.6,14.4-20.4,21.7
			c-5.5,5.9-11.1,11.7-16.5,17.6c-4.8,5.2-9.3,10.6-14,15.9c-5.4,6.1-10.9,12.1-16.2,18.2c-1.4,1.6-2.5,3.5-3.8,5.2
			c-5.9,7.6-12.1,14.8-17.8,22.6c-4,5.5-7.1,11.8-11,17.4c-4.5,6.4-9.5,12.5-14.2,18.9c-3.6,4.9-7.4,9.9-10.6,15.1
			c-3.8,6.2-7.3,12.7-10.7,19.2c-5.5,10.7-10.7,21.5-15.9,32.3c-2.8,5.6-5.3,11.4-7.8,17.1c-3.9,9.2-7.4,18.6-11.4,27.8
			c-2.6,6-5.7,11.9-8.7,17.8c-3.7,7.2-7.2,14.6-11.7,21.4c-5.3,7.9-11.1,15.5-17.3,22.8c-4.8,5.8-10.3,11.1-15.7,16.5
			c-1.7,1.5-3.4,2.8-5.3,4.1c-5.1,4.2-10.2,8.4-15.2,12.7l0,12.9c2.8-2.5,5.5-5.1,8.4-7.5c6.2-5.2,12.7-10.2,18.7-15.6
			c5.9-5.2,11.4-10.7,16.6-16.6c4.6-5.3,8.3-11.4,12.6-17c6.7-8.7,11.8-18.5,16.8-28.1s9.1-19.7,13.5-29.5c2.7-6,5.4-11.9,8-17.9
			c3.9-8.9,7.3-18.1,11.6-26.8c5.2-10.7,11.4-20.9,16.7-31.5c4.3-8.4,9.3-16.3,15.1-23.7c2-2.7,4.6-5,6.5-7.8
			c4-5.6,7.6-11.5,11.5-17.2c2.8-4.1,5.6-8.1,8.5-12.1c3.9-5.5,7.6-11.3,11.9-16.5c9.1-10.7,18.5-21.1,27.8-31.6
			c4.6-5.3,9.3-10.6,14-15.8c1.7-1.9,3.8-3.5,5.5-5.5c6.7-7.5,13.2-15,19.8-22.5c1.3-1.5,2.5-3.2,4-4.4c6.8-5.1,13.6-10.2,20.7-14.9
			c8.6-5.6,17.4-10.9,26.2-16.2c13.5-8.2,28.4-13.4,43.6-17.1c7.9-1.9,16.1-2.6,24.2-3.3c10.7-1,21.3,0.1,31.8,2
			c7.6,1.3,15,3.3,22.6,4.8c9.1,1.7,18.4,2.5,27.2,4.9c10.1,2.7,20,6.1,29.7,10.2c12.4,5.1,24.6,10.9,36.5,17
			c9.3,4.7,18.3,10,26.9,16c7.8,5.6,15,11.9,21.5,18.9c6.4,7,12.2,14.5,17.4,22.4c6.1,9.1,11.5,18.6,16.3,28.4
			c6,12.4,11,25.3,14.8,38.5c3.1,10.9,6.5,21.6,9.8,32.4c2.9,9.5,5.9,19,8.8,28.5c3.8,12.5,7.7,25,11.4,37.5
			c2.3,7.8,4.8,15.6,6.6,23.5c2.5,11.1,7.3,21.2,12.6,31c6.2,11.5,13.6,22.3,20.4,33.4c3.4,5.5,6.6,11,9.8,16.6
			c3.6,6.4,7.1,12.9,10.6,19.3c1,1.8,2.1,3.5,3.2,5.2v-19.9c-0.4-0.5-0.7-1-1.1-1.5c-4.8-8.7-9.6-17.5-14.6-26
			c-3.5-6-7.5-11.7-11.3-17.6c-2.3-3.6-4.9-7.1-7-10.8c-6.6-11.9-11.7-24.6-15-37.8c-2.2-8.6-4.2-17.2-6.7-25.7
			c-3.3-11.3-6.9-22.4-10.4-33.6c-2.9-9.1-6-18.2-8.8-27.4c-3.9-12.6-7-25.5-11.4-38C1079.3,205.3,1074.5,193.8,1069.1,182.6z"/>
		<path class="st0" d="M1155.6,473.5c-5.8-6.8-11.2-13.9-16-21.5c-6.2-9.4-11.9-19.1-17.7-28.8c-3.3-5.5-5.9-11.5-9.3-16.9
			c-6.2-9.8-12.9-19.2-19.2-29c-3.3-5.2-6.5-10.5-9.3-15.9c-3.7-7-7.1-14.2-10.3-21.5c-3.4-7.9-6.5-15.9-9.5-23.9
			c-4.3-11.6-8.4-23.2-12.6-34.8c-2.8-8-5.2-16.2-8.4-24.1c-4.6-11.5-9.6-22.8-14.9-33.9c-4.9-10.2-10.3-20.2-15.7-30.2
			c-2.8-5.2-5.8-10.3-8.9-15.3c-2.8-4.5-5.8-8.8-8.8-13.1c-5.3-7.4-10.6-14.8-16.1-22.1c-1.6-2.4-3.5-4.5-5.7-6.4
			c-5.8-4.9-11.8-9.6-17.9-14.1c-3-2.3-6.3-4.3-9.8-6c-9.7-4.4-19.5-8.5-29.3-12.8c-8.5-3.7-17.2-7.1-26.5-8.4
			c-9.6-1.4-19.1-3.4-28.8-3.8c-24-1-47,3.5-69.3,12.4c-10.2,4.2-20,9.1-29.5,14.6c-3.5,2-6.7,4.4-10,6.7
			c-5.5,3.8-11.1,7.5-16.3,11.7c-4.9,3.9-9.3,8.4-13.9,12.6c-9.2,8.6-17.6,18.2-24.9,28.4c-5,7-9.5,14.3-13.5,21.8
			c-5.4,9.9-10.6,19.8-15.1,30c-5.1,11.5-9.4,23.4-14,35.1c-4.7,12.1-9.5,24.1-14.3,36.2c-2.1,5.2-4.5,10.4-6.4,15.6
			c-3,8.1-6.9,16-8.3,24.4c-3.2,19.5-2.4,39.2,0.2,58.7c1.8,13.6,5.2,27.1,7.9,40.6c2,10.7,6.2,20.8,12.3,29.8
			c1.7,2.5,3.8,4.7,6.2,6.5c1.4,0.8,3,0.9,4.5,0.4c3.4-1.3,3.7-4.8,1-7.9c-5.8-6.3-10-13.8-12.3-22c-1.8-7-3.4-14.1-5.1-21.2
			c-4.7-19.8-7-40.1-6.9-60.5c0.1-13,1.1-25.8,6.2-38c5.6-13.4,10.9-26.9,16.2-40.3c3.6-9.1,6.9-18.4,10.7-27.5
			c5.1-12.3,10.5-24.5,15.9-36.7c4.7-10.9,10.5-21.3,17.2-31.2c4.2-6.3,8.7-12.4,13.5-18.2c5.9-6.9,12.3-13.4,18.8-19.8
			c4.5-4.6,9.4-8.8,14.5-12.6c8-5.8,16.3-11.3,24.7-16.4c6.3-3.6,12.7-6.9,19.3-9.8c9.7-4.4,19.8-7.8,30.2-10.2
			c26.4-6.4,52.6-5.2,78.3,2.5c14.5,4.2,28.6,10.1,41.8,17.4c6.8,3.7,13.2,7.9,19.2,12.7c6,4.9,11.8,10.3,16.2,17
			c5.5,8.3,11.6,16.2,16.9,24.5c4.6,7.2,8.8,14.7,12.9,22.2c4.3,7.8,8.4,15.8,12.6,23.7c2,4,4.3,7.9,6,12
			c3.9,9.5,7.6,19.1,11.2,28.7c3.4,9.3,6.5,18.8,9.8,28.1c3.6,10.3,7,20.7,11.2,30.8c5.2,12.5,10.7,24.8,16.6,37
			c4,8.2,8.4,16.2,13.3,23.9c5.1,8.2,11.3,15.7,16.4,23.9c4.6,7.3,8.3,15.4,12.5,22.8c4.2,7.3,8.7,14.6,13.3,21.7
			c3.2,4.9,6.8,9.6,10.1,14.5c6.6,9.9,15.1,18.3,25,24.9c2,1.1,4,2.2,6.1,3.1l0-10.3C1165,481.4,1159.6,478.1,1155.6,473.5z"/>
		<path class="st0" d="M1163.7,315.8c-4.3-7.5-9.2-14.7-13.4-22.3c-5.7-10.3-11-21-16.3-31.4c-5.3-10.5-10.4-21-15.6-31.5
			c-3.7-7.5-7.4-14.9-11.2-22.3c-2.2-4.1-4.5-8.1-7-12c-3.3-5.1-7-9.9-10.2-15.1c-4.1-6.7-7.8-13.6-11.8-20.5
			c-5.8-10.2-12.6-19.8-20.3-28.6c-4.8-5.3-9.4-10.8-14.6-15.7c-5.4-5.2-11.4-9.7-17.2-14.5c-4.7-3.9-9.2-8.2-14.2-11.8
			c-9.3-7-19.6-12.5-30.5-16.6c-6.2-2.3-12.3-4.9-18.4-7.5c-9.1-3.9-18.2-7.6-27-11.9c-6.6-3.2-12.7-7.2-19.2-10.8
			c-5.8-3.2-11.7-6.3-17.7-9c-6.4-2.9-12.9-5.9-19.7-7.8c-6.4-1.8-13.2-2.4-19.8-3.3c-20.6-2.8-41.5-1.7-61.7,3.4
			c-10.9,2.8-21.7,6.3-32.1,10.6c-12.4,5.1-24.4,11.1-36.4,17.1c-8.1,4.1-16.1,8.5-23.8,13.4c-8.2,5.2-15.9,11-23.8,16.6
			c-5.5,3.9-11.2,7.5-16.3,11.7c-8.7,7.1-17.2,14.5-25.5,22.1c-6.7,6.2-13.2,12.8-19.7,19.3c-6.8,6.7-13.5,13.5-20.3,20.2
			c-6.5,6.4-13,12.5-19.4,19.2c-6.4,6.7-12.6,13.7-18.7,20.7c-5.5,6.4-10.9,12.7-15.9,19.5s-9.7,14-14.4,21
			c-2.3,3.1-4.3,6.4-6.2,9.8c-4.2,8.6-8,17.3-11.9,26.1c-3.1,7-5.7,14.3-9.2,21.2c-6.7,13.3-13.6,26.4-20.7,39.5
			c-3,5.6-6.6,10.8-10.1,16.1c-1.2,1.9-2.6,3.6-4,5.3l0,16.7c0.7-0.6,1.2-1.2,1.8-1.9c6.4-9.8,13.1-19.4,19.2-29.4
			c5.5-9,10.6-18.3,15.6-27.6c2.9-5.4,5.6-11.1,8-16.7c4.3-10.1,8-20.5,12.7-30.5c3.9-8.1,8.3-16,13.2-23.5
			c5.2-8.2,10.8-16.2,16.7-24c4.5-6,9.5-11.6,14.4-17.3c4.6-5.4,9.1-10.9,14-15.9c7.4-7.6,15.2-14.9,22.8-22.4
			c5.8-5.8,11.5-11.9,17.2-17.6c5.7-5.7,11.6-11.1,17.4-16.7c4.5-4.4,8.8-8.9,13.5-13c5.7-4.9,11.6-9.4,17.5-13.9
			C681,97,688,91.4,695.4,86.2c5.9-4.2,12.2-7.8,18.4-11.5c5.6-3.4,11.1-6.9,16.8-9.9c6.9-3.7,14-7.1,21.2-10.4s14.4-6.2,21.7-9.3
			c13.3-5.7,27.4-9.7,41.7-11.9c14.9-2.4,29.7-2,44.5-0.1c7.2,0.8,14.3,2.2,21.3,4.1c5.6,1.6,10.8,4.4,16,7
			c8.6,4.3,17.2,8.7,25.7,13.2c6.2,3.3,12.3,7,18.5,10.2c5.3,2.7,10.7,5.1,16.1,7.3c7.8,3.1,15.6,6.2,23.5,9
			c8.4,3.1,16.4,7.4,23.5,12.8c9.2,6.8,17.8,14.4,26.4,21.9c5.2,4.6,10.2,9.5,14.8,14.6c4.7,5.1,9.5,10.3,13.3,16
			c6.7,9.9,12.8,20.3,19,30.5c2.9,4.7,4.9,10.2,8.4,14.3c6.7,8,11.4,17.1,16.1,26.2c4.6,8.8,8.6,17.9,13,26.8
			c5.4,10.9,10.7,21.9,16.3,32.7c4.3,8.3,8.6,16.7,13.5,24.7c4.2,6.9,8.9,13.4,11.8,21c2.4,6.4,4.9,12.9,7.3,19.3
			c1.7,4.4,3.5,8.8,5.2,13.2v-28c-0.4-0.7-0.8-1.4-1.1-2.2C1167.1,323.7,1165.8,319.5,1163.7,315.8z"/>
		<path class="st0" d="M593.2,366c0.3-10.2,1.9-20.1,6-29.6c5.3-12.3,10.2-24.8,15-37.4c4-10.5,7-21.4,11.4-31.8
			c5.4-12.8,11.3-25.4,17.8-37.6c5-9.1,10.5-17.8,16.7-26.2c4.6-6.3,9.7-12.1,15.2-17.6c7.6-7.7,15.8-14.8,23.5-22.3
			c7-6.9,13.7-14.1,20.7-21c6.9-6.9,13.9-13.7,21-20.3c7-6.6,14.9-12.1,23.5-16.2c9.8-4.6,19.9-8.6,29.7-13.1
			c10.6-4.8,21.8-7.5,33.3-9.1c19.1-2.6,38.2-1.2,57,2.3c20.1,3.8,39.5,10.9,57.2,21c8.7,4.9,16.8,11,24.7,17.1
			c6.2,4.8,12.1,10.1,17.5,15.8c5.3,5.6,10.1,11.5,14.6,17.8c6.2,8.6,12.1,17.5,17.8,26.4c3.8,5.8,7.1,12,10.6,18
			c2.7,4.8,5.7,9.6,8,14.6c4.2,9.1,8.1,18.5,12.1,27.8c2.4,5.6,4.8,11.2,6.8,16.9c3.9,11,7.6,22.2,11.4,33.3
			c6.6,19.7,13.3,39.3,20,59c0.4,0.9,1,1.6,1.8,2.1c2,1.3,4.6,0.9,6.1-0.9c0.9-1.5,1.2-3.4,0.7-5.1c-3-9.3-6.2-18.5-9.4-27.7
			c-5.6-16.4-11-32.8-16.6-49.1c-4.2-12.1-8.4-24.3-13.3-36s-10.7-23-16.5-34.4c-4.3-8.4-8.9-16.7-13.8-24.8
			c-3.2-5.3-6.6-10.4-10.3-15.4c-5.5-7.4-11-14.7-17-21.7c-5.6-6.6-11.6-12.8-17.9-18.7c-5.5-5.2-11.7-9.7-17.7-14.3
			c-2-1.4-4.2-2.7-6.3-3.9c-4-2.5-7.9-5.4-12.2-7.4c-8.9-4.1-18-8-27.2-11.4c-7.6-2.8-15.3-5.2-23.1-7.1c-12.6-3.2-25.5-4-38.4-4.8
			c-12.8-0.8-25.7,0.2-38.2,2.9c-11.2,2.4-22,6.9-32.8,10.9c-6.5,2.6-12.8,5.5-19,8.9c-6.3,3.3-13,6.2-18.6,10.5
			c-8.5,6.7-16.7,13.7-24.4,21.3c-5.8,5.5-10.8,11.7-16.3,17.4c-4.2,4.3-8.8,8.4-13.1,12.6c-5.8,5.6-11.7,11.3-17.5,17
			c-4.8,4.8-10,9.2-14.2,14.5c-5.9,7-11.4,14.5-16.3,22.2c-6.3,10.1-12,20.5-17.2,31.2c-4.4,9.2-7.8,18.8-11.6,28.3
			c-3,7.7-6,15.5-8.8,23.4c-2.2,6.1-4.2,12.4-6.5,18.5c-1.7,4.6-3.5,9.2-5.6,13.6c-5.3,11.2-9.6,22.5-9.5,35.2
			c0.1,16.3-4,31.6-11.2,46.1c-3,6.1-6.5,11.9-10.6,17.3c-5,6.7-11.2,12.5-16.4,19.2c-7.8,10.1-16.8,18.5-29,23
			c-7.7,2.8-15.2,5.8-22.8,8.8c-3.4,1.3-6.8,2.7-10.2,4.1c-4.7,2-9.3,4-14,6l0,10.2c3.4-1.3,6.9-2.5,10.2-3.9
			c5-2.1,9.8-4.4,14.8-6.5c11.3-4.6,22.9-8.8,33.9-14c5.7-2.9,10.9-6.7,15.5-11.3c5.4-5.1,10.1-11.1,14.7-16.9
			c5.7-7.2,11.4-14.6,16.7-22.2c4.3-6.3,7.8-13.1,10.2-20.3C590,389.7,592.9,378.2,593.2,366z"/>
		<path class="st0" d="M998.2,70.6c10.7,9.4,21.5,18.6,32.2,27.9c6,5.2,11.7,10.8,17.8,15.9c7.9,6.3,15.3,13.1,22.3,20.4
			c1.2,1.3,2.7,2.4,3.8,3.8c4.3,5.5,8.8,10.9,12.6,16.6c6,8.9,12.2,17.8,17.2,27.2c4.4,8.3,7.4,17.4,11.1,26.1
			c4.9,11.5,9.6,23.1,16.1,33.9c1.1,1.8,2.1,3.5,3,5.4c2.6,5.4,5,10.9,7.6,16.3c1.7,3.6,3.6,7.2,5.8,10.6c3.8,6.1,8,11.9,11.8,17.9
			c2.1,3.4,3.7,7.1,5.5,10.7c1.6,3.1,3.1,6.2,4.6,9.3V290c-2.4-3.6-4.8-7.2-7.1-10.9c-4-6.3-8.1-12.4-11.7-18.9
			c-2.8-5.1-4.6-10.7-7.5-15.8c-6.6-11.7-12.5-23.7-17.8-36.1c-5.1-11.9-10.2-23.8-15.8-35.5c-4.9-10.4-11.8-19.6-18.6-28.7
			c-8.2-11-17.7-21-28.2-29.8c-6.7-5.6-12.9-11.6-19.5-17.3c-5.2-4.5-10.7-8.8-15.8-13.2s-10.2-9-15.2-13.4
			c-5.9-5.2-11.9-10.3-17.6-15.7c-10.3-9.9-21.8-18.6-34.2-25.7c-13.1-7.3-26.4-14.4-39.9-21c-10.3-5-20.9-9.2-31.4-13.8
			c-14.6-6.4-29.9-9.8-45.7-11.5C819.3-20,795-17.6,771-13.7c-15.9,2.6-31.3,7.5-46.4,13.4c-3.7,1.4-7.3,2.9-10.9,4.4
			c-10,4.2-20.1,8.1-29.8,12.8c-11,5.4-21.7,11.4-32.3,17.5c-8.2,4.7-16.1,9.8-24,15.1c-5,3.4-9.8,7.2-14.6,10.9
			c-7.1,5.4-14.6,10.4-21.2,16.4c-7.2,6.4-13.9,13.4-20,20.9c-8.4,10.3-16.3,21.1-23.9,32c-5.3,7.6-9.9,15.7-14.8,23.6
			c-2.1,3.3-4.2,6.6-6.2,10c-4.3,7.4-8.5,14.9-12.9,22.3c-2.6,4.4-5.5,8.6-8,13c-4.3,7.5-8.3,15.2-12.5,22.8
			c-5.5,9.7-11,19.3-16.5,28.9c-2.4,4.3-4.8,8.6-7.2,12.9l0,19.9c2.2-4.1,4.5-8.2,6.7-12.2c4.2-7.5,8.4-15,12.6-22.5
			c1.7-3,3.5-5.8,5.2-8.8c4.2-7.6,8.1-15.3,12.4-22.8c4.6-8.2,9.5-16.2,14.3-24.2c5.8-9.8,11.4-19.6,17.2-29.4
			c2-3.3,4.2-6.5,6.2-9.7c3.6-5.8,6.9-11.9,10.8-17.5c5.4-7.9,11.2-15.5,17-23.1c4.4-5.8,8.7-11.6,13.6-16.9
			c7.6-8.3,16.1-15.7,25.4-22.1c5.3-3.7,10.1-8,15.4-11.6c9.9-6.8,20-13.4,30.2-19.8c5.2-3.2,10.7-5.9,16-8.8
			c4.4-2.4,8.7-5.1,13.2-7.2c8.9-4,18.1-7.9,27.1-11.6s18.1-7.3,27.3-10.4c8.9-3,17.9-6.1,27.1-7.6c14.6-2.5,29.5-4.1,44.3-5.3
			c30.4-2.4,59.3,4.1,87,16.6c11.1,5,21.9,10.7,32.6,16.2c8.8,4.5,17.4,9.1,26,13.9c3.6,2.1,7.1,4.5,10.5,7
			c5.3,3.9,10.7,7.8,15.8,12S993.2,66.2,998.2,70.6z"/>
		<path class="st0" d="M1169.7,258.8c-6.2-8.3-12.5-16.5-16.4-26l0-7.9c-1-1.6-1.9-3.2-2.7-4.9c-1.1-2.5-2-5-2.9-7.4
			c-0.2-0.8-0.4-1.6-0.6-2.4c-2.3-9-5.7-17.7-10.2-25.9c-3.8-6.6-7.4-13.2-11.3-19.7c-3.7-6.1-7.5-12.2-11.7-17.9
			c-5.4-7.4-11.4-14.5-16.9-21.8c-4.3-5.7-8.3-11.6-12.5-17.4c-2.7-3.7-5.5-7.3-8.3-10.9c-4-5.3-8-10.7-12.1-16
			c-1.9-2.4-4-4.6-6-6.9c-4.8-5.6-9.4-11.5-14.4-16.9c-5.3-5.7-11-11.2-16.7-16.6c-6.8-6.3-13.7-12.6-20.7-18.6
			c-6-5.2-12.2-10.3-18.6-14.9c-6.9-5-14-9.6-21.2-14c-8.2-5-16.5-10.2-25.2-14.2c-10.7-4.9-21.8-8.8-32.8-13c-6.6-2.5-13.2-5-20-7
			c-10.1-3-20.3-5.7-30.6-8.2c-20.3-4.9-40.8-6.3-61.7-5.3c-17.8,0.8-34.9,4.7-51.8,9.9c-12.1,3.8-24.3,7.3-36.3,11.3
			c-5.4,1.8-10.6,4.2-15.9,6.4c-8.4,3.6-16.9,7-25.1,10.9c-7.7,3.7-15.2,7.9-22.8,11.9c-8.5,4.4-17.1,8.6-25.5,13.3
			c-10.5,5.8-21,11.6-30.9,18.3c-8.1,5.4-15.4,11.9-23,18c-3,2.4-6.1,4.7-8.9,7.3c-4.3,4-8.5,8.2-12.6,12.4
			c-5.5,5.6-11.1,11.1-16.3,17c-6,6.9-11.9,13.9-17.1,21.3c-6.8,9.5-13,19.5-19.3,29.3c-5.1,7.9-10,15.9-15,23.8c-1.9,3-3.7,6-5.6,9
			V184c0.4-0.5,0.8-1,1.1-1.5c5.8-9.5,11.7-19.1,17.5-28.6c2-3.2,4.1-6.3,6.1-9.5c4-6.7,7.9-13.4,12-20c2.4-3.8,5.1-7.3,7.7-11
			c4-5.6,7.8-11.3,12.1-16.7c3.9-4.8,8-9.3,12.4-13.7c8.8-9,17.6-18.1,26.8-26.7c5.4-5,11.5-9.3,17.5-13.7
			c4.8-3.7,9.7-7.3,14.8-10.6c7-4.5,14.2-8.7,21.5-12.7c10.3-5.6,20.8-11.2,31.3-16.6c9.5-5,18.9-10.1,28.7-14.5
			c10.5-4.7,21.4-8.7,32.2-12.6c11.6-4.2,23.3-8.2,35.1-11.7c14.4-4.2,29-7.7,44.2-9c17-1.6,34.1-0.9,50.9,2
			c15.6,2.8,30.8,7.2,46.1,11.4c9.6,2.6,19.1,6.1,28.4,9.6c14.3,5.5,28.1,12.2,41.2,20c3.6,2.2,7.1,4.6,10.5,7
			c5.9,4,12,7.8,17.6,12.2c7.2,5.7,14.2,11.7,21.2,17.7c5.7,4.9,11.3,9.8,16.7,15.1c4.8,4.7,9.2,9.8,13.7,14.7
			c4.2,4.5,8.4,9,12.4,13.6c2.3,2.6,4.4,5.3,6.6,8.1c6,7.8,12.1,15.5,18,23.4c4.1,5.4,7.9,11,11.9,16.5c2.7,3.6,5.6,7,8.3,10.6
			c4.4,6,8.7,12.2,13.1,18.3c3,4.2,6.3,8.3,9,12.7c3.5,5.6,6.4,11.5,9.8,17.1c4.6,7.6,8.1,15.7,10.6,24.1c-0.1,0.7-0.1,1.4,0,2.1
			c0.6,2.1,1.3,4.1,2.1,6.1c0.1,0.7,0.3,1.4,0.4,2.1c2.7,13.2,8.1,25.7,15.9,36.6c3.8,5.5,7.4,11.1,11.1,16.7
			c1.1,1.7,2.2,3.5,3.3,5.2L1169.7,258.8z"/>
		<path class="st0" d="M725.6-57.7c-10.9,3.9-21.5,8.3-32.2,12.5c-10.5,4.1-21.2,7.8-31.5,12.3c-12.9,5.6-25.5,11.7-38.1,18
			c-9.1,4.5-17.9,9.4-26.4,14.8c-11.6,7.3-22.6,15.7-32.8,25c-5.8,5.4-12,10.4-17.8,15.8c-4.6,4.3-8.9,9-13.3,13.5
			c-5.4,5.5-11,10.7-16.2,16.4c-7.4,8.2-14.8,16.5-21.7,25.2c-4.3,5.4-7.7,11.6-11.5,17.4c-1.7,2.5-3.5,5-5,7.6
			c-2.7,4.4-5.3,8.9-8,13.3c-0.4,0.5-0.8,0.9-1.2,1.3v18.3c0.6-0.5,1.1-1.1,1.5-1.8c4-6.4,7.9-12.8,11.8-19.2
			c2.8-4.5,5.3-9.1,8.2-13.5c4.8-7.3,9.4-14.8,14.8-21.7c5.1-6.4,10.5-12.4,16.2-18.2c10.7-11.2,21.5-22.4,32.5-33.2
			c6.8-6.7,14-13,21.4-19.2c5.3-4.4,11.1-8.1,16.7-12.1c3.8-2.8,7.6-5.7,11.6-8.2c6.2-3.8,12.6-7.3,19-10.9c2.7-1.5,5.5-3.1,8.3-4.4
			c10.7-5,21.4-10.1,32.2-14.8c7.9-3.5,15.9-6.6,23.9-9.7c9.6-3.8,19.3-7.5,29-11.2c8-3,16-6.3,24.2-8.7
			c14.9-4.4,29.8-9.4,45.4-10.8c8.3-0.7,16.7-0.9,25-0.7c21.5,0.5,42.6,4.6,63.2,10.5c4.2,1.2,8,3.5,12.1,5.1
			c8.3,3.2,16.8,6.2,25.1,9.5c9.9,4,19.9,7.8,29.3,12.5c10.6,5.3,20.8,11.2,30.7,17.6c10.6,6.9,20.8,14.6,30.9,22.3
			c6.6,5,12.8,10.5,19,16c5,4.4,9.6,9.3,14.3,14c5.4,5.4,10.8,10.7,16,16.2c4.5,4.9,8.8,10.1,13.1,15.2c6.2,7.2,12.5,14.3,18.5,21.6
			c4.8,5.9,9.2,12.1,13.8,18.1c7.5,9.9,15.1,19.7,22.7,29.6c4.2,5.5,8.7,10.9,12.9,16.5c5.7,7.6,11.6,15.3,16.9,23.2
			c6,9,11.6,18.3,17.3,27.4c0.7,1.1,1.5,2.2,2.2,3.3v-19.4l-4.4-6.2c-3.1-4.5-6.2-8.9-9.4-13.4c-3.8-5.3-7.6-10.6-11.5-15.8
			c-1.5-2-3.2-3.8-4.7-5.8c-4.7-6.2-9.5-12.3-14.1-18.6c-4-5.4-7.7-11-11.8-16.2c-5.9-7.7-12.2-15.2-18.2-22.9
			c-4-5-7.8-10.2-11.9-15.2c-4.6-5.5-9.5-10.9-14.2-16.3c-5.1-5.9-10.1-11.8-15.4-17.5c-4.6-4.9-9.6-9.6-14.5-14.3
			c-5.3-5.1-10.6-10.4-16.2-15.3c-5-4.4-10.4-8.4-15.7-12.5c-7.8-6-15.5-12.2-23.5-17.8c-5.8-4.1-12.1-7.5-18.2-11.2
			c-4.6-2.8-9-5.9-13.8-8.2c-11.3-5.4-22.5-10.8-34.4-15c-10.4-3.7-20.8-7.4-30.7-12c-12.4-5.8-25.6-7.8-38.8-10.5
			c-17.7-3.5-35.8-4.8-53.8-4.1c-13.5,0.5-26.5,3.3-39.3,7.1C745.2-64.1,735.3-61.1,725.6-57.7z"/>
		<path class="st0" d="M861.4,610.3c-3-1.3-5.8-2.8-8.8-4.1c-8.8-4-17.8-7.6-26.3-12.1c-8.9-4.8-17.3-10.4-25.9-15.8
			c-7.4-4.7-13.8-10.7-19.8-17.1c-9-9.5-17.9-19.2-27.1-28.5c-6.7-6.8-14-13-21-19.5c-10.2-9.6-20.7-19-30.5-29
			c-9.1-9.3-15.4-20.5-20.7-32.4c-5.5-12.3-8.7-25.1-11.8-38.1c-3.9-16.7-4.8-33.8-4.9-51c-0.2-15.5,0.8-30.8,3.8-46
			c2.1-10.3,3.9-20.6,6.7-30.7c3.2-11.4,7-22.6,11.4-33.6c4.1-10.1,9.1-19.8,14.1-29.5c5.6-10.9,12.4-21,20.2-30.4
			c5.3-6.3,10.6-12.6,16.4-18.4c6-6,12.3-11.8,18.9-17.1c5.7-4.4,11.5-8.4,17.6-12.1c5.5-3.5,11.2-6.9,17-10.1
			c7.2-4,14.7-7.4,22.4-10.2c14.8-5.5,30.6-8,46.4-7.5c16.5,0.4,32.5,4.3,48,9.8c10.9,3.8,21.4,8.8,31.1,15
			c7.2,4.6,14,9.7,19.6,16.1c5.8,6.7,11.2,13.7,16.7,20.7c1.7,2.4,5,3,7.4,1.3c2.3-1.7,2.6-4.6,0.6-7.1c-5.6-6.8-11-13.9-16.9-20.4
			c-4.4-5-9.3-9.6-14.7-13.6c-7.5-5.4-15.3-10.4-24-14.1c-8.5-3.6-16.9-7.3-25.8-9.9c-19.4-5.8-39.2-8.6-59.4-6.8
			c-13.2,1.2-25.9,4.8-38.1,9.7c-5.3,2.1-10.5,4.6-15.5,7.3c-7.7,4.1-15.6,8.1-22.8,13c-7.5,5.1-14.5,11.1-21.5,16.9
			c-4.9,3.9-9.6,8-14,12.4c-5.5,5.6-10.4,11.7-15.7,17.5c-6.6,7.2-11.8,15.6-16.8,23.8c-5,8.2-9,17-13.5,25.6
			c-7.5,14.2-12.4,29.4-16.9,44.6c-3.1,10.6-5.1,21.6-7.4,32.5c-3.1,14.6-4.8,29.4-5.1,44.3c-0.6,27.7,2.7,54.8,10.8,81.2
			c3.2,10.3,8,20.1,12.4,29.9c1.8,3.6,3.9,7,6.4,10.2c4.4,5.9,8.7,11.8,13.5,17.2c4.2,4.7,9.1,8.8,13.8,13.1
			c1.2,1.1,2.4,2.1,3.5,3.2c-2-0.8-4-1.7-6-2.5c-3.9-1.5-7.8-3-11.7-4.5c-2.9-3.2-5.7-6.4-8.2-9.9c-5.5-7.6-10.7-15.5-15.4-23.5
			c-3.7-6.5-7-13.2-10-20.1c-2.5-5.3-4.6-10.9-6.1-16.6c-2.8-11.7-5.4-23.6-7.2-35.5c-3.1-20.8-4.4-41.7,0.4-62.6
			c0.7-3-1.8-5.8-5.4-5.7c-2.2,0.3-3.9,2.1-4.1,4.2c-1.1,7.9-2.7,15.8-3,23.7c-0.8,27.3,2.8,54.5,10.6,80.7
			c3.8,13.2,9.4,25.7,16.5,37.5c4.3,7.1,9.2,14,14.1,20.8c-4.5-1.8-9-3.6-13.5-5.4c-1.9-0.8-3.8-1.8-5.7-2.6v5.3
			c-2.5-2.3-5-4.6-7.5-6.9c-5.3-4.9-10.6-9.8-15.6-15c-4.8-4.9-9.3-10.1-13.7-15.4c-4.7-5.6-9.1-11.5-13.1-17.6
			c-2.6-4.1-4.5-8.6-5.6-13.3c-1.3-5.9-2-11.8-2.2-17.9c-0.8-21.7,5.9-41.9,12.9-62c4-11.4,8.7-22.5,12.7-33.9c4.6-13,8.8-26,13-39
			c3.7-11.8,8.5-23.4,14.1-34.4c4.1-7.9,9.5-15.1,14.4-22.6c1.4-2.1,1.4-4.5-0.4-6.3c-2.2-2.1-5.2-2-7.2,0.8
			c-3.5,4.9-7,9.9-10.2,15.1c-2.8,4.3-5.3,8.7-7.4,13.4c-3.7,8.6-7.1,17.3-10.4,26.1c-2.9,7.8-5.8,15.6-8.4,23.5
			c-4,11.8-7.6,23.7-11.7,35.4c-3.5,10-7.4,19.9-11.2,29.9c-5.6,14.6-8.9,29.9-9.8,45.5c-1.2,19.9,2.5,38.7,15.3,54.6
			c6.2,7.8,13,15.2,20,22.4c7.6,7.9,15.7,15.4,23.6,23c2.7,2.6,5.5,5.1,8.2,7.7v1.7h0v5.6l7.5,3h3c4.5,4.7,8.8,9.6,13.3,14.4
			c4.1,4.4,7.9,9,12.4,12.9c5.2,4.4,10.8,8.5,16.5,12.3c8.2,5.5,16.7,10.7,25.2,15.7c9.5,5.5,19.2,10.7,28.8,16
			c8.2,4.6,16.3,9.2,24.5,13.9c1.5,0.9,3,2,4.5,2.9c6.3,3.7,12.7,7.3,19,11.1c2.2,1.3,4.2,2.8,6.2,4.2l20.5,0
			c-6.9-3.9-13.8-7.9-20.7-11.9c-8.1-4.7-16.1-9.4-24.1-14c-6.5-3.8-13-7.5-19.6-11.2c-11.1-6.2-22.2-12.3-33.2-18.7
			c-8.5-4.9-17-9.9-25.1-15.4c-6.6-4.5-12.8-9.8-19-14.8c-2-1.7-3.8-3.6-5.4-5.6c-3.4-3.9-6.5-8-9.9-11.9h11.8
			c10,10.8,20.9,20.8,32.4,30c5.8,4.6,11.6,9.2,17.5,13.7c2.8,2.2,6,1.8,7.6-0.5s0.9-5.1-1.8-7.2c-5.2-3.9-10.4-7.8-15.5-11.8
			c-2-1.6-3.7-3.4-5.6-5c-5.1-4.4-10.6-8.7-15.4-13.3c-2-1.9-3.9-3.9-5.8-5.9h3.4c-0.7-0.5-1.5-0.9-2.2-1.2
			c-1.1-0.4-2.3-0.8-3.4-1.2c0,0,0,0,0,0c1.1,0.4,2.3,0.8,3.4,1.2c0.8,0.4,1.5,0.8,2.2,1.2h9.2c2.2,1.9,4.3,3.9,6.5,5.9
			c5,4.5,10.3,8.8,15.2,13.5c4.5,4.4,8.6,9.3,13,13.8c5.4,5.7,10.8,11.4,16.4,17c4.5,4.7,9.2,9.2,14.1,13.5
			c9.5,7.8,20,14.1,30.9,19.8c6.2,3.3,12.4,6.3,18.7,9.4c3.6,1.8,7.3,3.5,10.9,5.2c4,1.8,8,3.6,12,5.4l24.2,0c-0.5-0.4-1-0.7-1.5-1
			C875.7,616.4,868.5,613.4,861.4,610.3z M682,504.8c-5.5-2.2-10.9-4.5-16.3-6.7c-0.3-0.1-0.5-0.2-0.8-0.3c0,0,0,0-0.1-0.1
			c0.3,0.1,0.6,0.2,0.9,0.4C671.2,500.4,676.6,502.6,682,504.8c1.9,0.7,3.9,1.5,5.8,2.3c0,0,0,0,0,0
			C685.9,506.4,684,505.6,682,504.8z"/>
		<path class="st0" d="M929.8,614.3c-16.2-5.3-32.6-10.6-48.6-16.5c-11.2-4-22.1-8.7-32.7-14.1c-9.3-4.9-18-11-26.8-16.9
			c-5.6-3.6-11.1-7.5-16.3-11.7c-8.9-7.4-17.5-15.1-26-22.9c-5.5-5-10.4-10.5-15.8-15.6c-4.6-4.4-9.5-8.6-14.3-13
			c-6.1-5.5-12.2-11-18.2-16.6c-4.8-4.3-9.7-8.5-14-13.2c-5.8-6.4-11.3-13.1-15.5-20.8c-3.2-5.8-6.2-11.7-7.9-18.2
			c-1.9-7.4-4.7-14.5-6.4-21.9c-3.4-14.7-5.5-29.6-6.3-44.7c-1-18.5,1-36.7,5-54.7c1.6-7,4.3-13.9,6.7-20.7c4.2-11.9,8-24,12.9-35.5
			c5.3-12.5,11.4-24.7,17.7-36.8c3.6-7,7.8-13.6,12.6-19.8c4.4-5.7,9.7-10.7,14.9-15.7c5.4-5.3,11-10.2,16.9-14.8
			c7.3-5.5,15.2-10.4,22.7-15.6c7.2-5,15-9.1,23.2-12.2c5.9-2.2,11.8-4.6,17.9-5.6c13.5-2.3,27.1-2.2,40.8-1.5
			c3.9,0.1,7.9,0.4,11.8,1c13.3,2.3,25.9,7,38.4,12c3.1,1.2,5.7,0.5,7-2.2c1.1-2.3,0-4.9-3-6.2c-3.8-1.6-7.6-3-11.5-4.4
			c-15.3-5.9-31-10.2-47.6-9.9c-10.4,0.2-20.8-0.2-31.2,0.8c-18.9,1.8-35.4,10.5-51.3,20.2c-8.1,4.9-15.8,10.8-23.3,16.7
			c-6.5,5.1-12.7,10.6-18.9,16.1c-9.3,8.5-17.4,18.3-23.8,29.2c-4.5,7.3-8.6,14.9-12.2,22.7c-4.7,10.2-8.9,20.7-13,31.2
			c-4.5,11.5-8.7,23.1-12.9,34.7c-3.6,10-5.7,20.4-7.3,31c-4,26.2-2.5,52.3,2.5,78.1c2.5,11.9,5.7,23.7,9.6,35.2
			c3.1,9.2,7.7,17.8,13.5,25.5c5.5,7.6,11.7,14.7,18.5,21.1c6.8,6.3,13.9,12.3,20.7,18.6c5.9,5.4,11.6,11.1,17.5,16.6
			c5.7,5.3,11.4,10.6,17,15.9c2.1,2,4,4,6.1,6c1.8,1.7,3.8,3.2,5.7,4.9s3.6,3.4,5.6,5c4.7,3.8,9.4,7.5,14.2,11
			c8,5.9,15.8,12,24.2,17.3c7.7,4.8,15.8,9.1,24,12.9c8,3.8,16.2,7.3,24.4,10.4c8.9,3.3,18,6,27,9.1c4.4,1.5,8.7,3.2,13.1,4.8
			l33.9,0c-0.9-0.3-1.8-0.7-2.7-1C942.2,617.8,935.9,616.3,929.8,614.3z"/>
		<path class="st0" d="M469.9,251.8c2-4,4-8,6.1-11.9c5.5-10.2,11.1-20.5,16.7-30.6c5.1-9.1,10.3-18.2,15.5-27.2
			c2-3.6,4.2-7.1,6.2-10.6c1.1-1.9,2-4,3.2-5.9c2.2-3.8,4.6-7.4,6.8-11.2c3.7-6.4,7.1-13.1,11.1-19.3c4.9-7.5,10.2-14.7,15.6-21.8
			c4.7-6.1,9.5-12.1,14.7-17.8c8.4-9.1,17.3-17.9,25.9-26.9c5.2-5.4,10.1-11.2,15.6-16.3c7.4-6.8,15.5-12.8,24.1-17.8
			c9.6-5.6,18.9-11.6,28.6-17c7.9-4.5,16.2-8.5,24.3-12.5c6.7-3.3,13.3-6.7,20.1-9.5c9.4-3.8,19-7.5,28.7-10.6
			c13.7-4.3,27.6-7.5,41.8-9.6c23.2-3.4,46.8-3.5,70-0.5c16.2,2.2,32.2,6.2,47.5,12c13.5,5,26.5,11.3,39.6,17.4
			c7.6,3.6,15,7.6,22.2,11.8c7.2,4.3,14.1,9,21,13.9c8.1,5.7,16.2,11.5,23.8,17.7c6.3,5.1,12.2,10.8,18,16.4
			c5.5,5.4,10.7,11,15.9,16.6c1.8,2,3.2,4.2,5,6.2c1.8,2,4.6,2.5,6.3,1.1c2.3-1.8,2.8-4.2,1.1-6.7c-2.1-2.9-4.3-5.7-6.7-8.4
			c-4.9-5.7-9.8-11.4-15.1-16.7c-4.4-4.4-9.3-8.3-14.1-12.3c-7.1-5.8-14.2-11.7-21.7-17.2c-7-5.1-14.3-9.8-21.6-14.4
			c-9-5.5-18-11-27.4-15.9c-8.5-4.4-17.4-7.9-26.1-11.9c-10-4.6-20.2-8.5-30.8-11.6c-36.5-11-75-13.4-112.5-6.9
			c-16,2.8-31.7,7.4-47.3,12c-16,4.7-31,12.1-45.8,19.5c-10,5-19.6,10.7-29.4,16.1c-1.1,0.6-2.2,1.2-3.3,1.8
			c-6.5,3.9-13.1,7.7-19.5,11.8c-3.6,2.3-7,4.9-10.4,7.6c-5.3,4.2-10.9,8.1-15.8,12.8c-7,6.8-13.4,14.3-20.1,21.5
			c-4.8,5.1-9.6,10-14.4,15.1c-4.3,4.5-8.8,9-12.7,13.8c-5.9,7.4-11.6,15-17.1,22.7c-4.4,6.3-8.5,12.8-12.5,19.3
			c-2.8,4.7-5.1,9.7-7.8,14.4c-4.4,7.5-9.1,15-13.5,22.5c-7.8,13.5-15.4,27-23.1,40.6c-2.4,4.2-4.7,8.6-7,12.9V251.8z"/>
		<path class="st0" d="M1169.7,526.9c-2.3-0.8-4.7-1.2-6.8-2.4c-6-3.3-12.2-6.2-18.5-8.9v-4.1c-2.3,0.5-4.6,0.9-6.8,1.4c0,0,0,0,0,0
			c2.3-0.5,4.6-0.9,6.9-1.4v-6.7c-1.1,0.2-2.2,0.5-3.2,0.7c-1.6,0.4-3.1,0.9-4.7,1.2c-3.7,0.7-7.5,1.4-11.2,2.1
			c-4-1.1-7.9-2.5-11.7-4.2c-6.2-3-12.2-6.4-18.2-9.8c-6.3-3.5-12.5-7.3-18.8-10.8c-8.7-4.9-17.6-9.5-26.2-14.6
			c-10-5.9-19.9-12-29.4-18.6c-7.4-5.2-14.2-11.2-21.1-17c-2.9-2.4-5.4-5.2-8.1-7.8c-5.5-5.2-11.1-10.4-16.4-15.7
			c-4.3-4.3-8.2-8.9-12.3-13.4c-5.1-5.6-10.2-11.2-15.1-17c-3.2-3.8-6-8.1-9-12.1c-1.2-1.6-2.6-3-3.7-4.6
			c-3.9-5.8-7.6-11.8-11.7-17.5c-5.9-8.1-11.3-16.6-14.8-26c-2.9-8-5.2-16.2-7-24.5c-0.9-3.8-0.5-8,0-12c0.3-2.9,1.8-6,4.8-6.9
			c5.9-1.8,12.3-1,17.6,2.2c9.3,5.5,17.3,12.7,24.7,20.6c9.7,10.2,18.8,21,27,32.4c3.8,5.3,7.9,10.3,11.6,15.7
			c5.7,8.5,10.9,17.2,16.6,25.7c4.3,6.5,8.9,12.7,14,18.5c4.7,5.3,10.5,9.7,15.6,14.7c4.7,4.6,9,9.5,13.6,14.1
			c2.3,2.4,4.8,4.5,7.3,6.7c4.9,4.3,9.8,8.6,14.9,12.7c0,0,0,0,0.1,0.1c1.7,1.4,4.1,1.2,5.5-0.5c1.9-1.9,2.1-4.3,0.5-6.3
			c-0.9-1.1-1.9-2.1-3-3c-3.3-2.8-6.8-5.5-10-8.5c-5.9-5.5-11.7-11-17.4-16.6c-5.2-5.1-10.3-10.4-15.5-15.5
			c-1.5-1.5-3.4-2.7-4.8-4.3c-6.4-7.3-11.7-15.5-17-23.7c-6.4-9.8-12.8-19.6-19.5-29.2c-4.8-6.8-9.9-13.6-15.2-20
			s-10.9-12.5-16.6-18.6c-4.5-4.8-9.2-9.5-14-14c-2.2-2.1-5-3.4-7.4-5.3c-8.3-6.4-17.4-10.2-28-8.3c-5,0.8-9.3,3.7-12,8
			c-3.6,5.9-4.4,12.5-3.5,19.2c2,15.7,7.1,30.8,15.1,44.4c3.5,5.9,7.3,11.7,11.2,17.3c5.3,7.6,10.8,15.1,16.3,22.6
			c4.3,5.8,8.5,11.7,13.1,17.3c3.8,4.5,8.1,8.5,12.2,12.8c5.3,5.6,10.4,11.4,16,16.9s11.5,10.7,17.4,15.9c5.3,4.7,10.6,9.3,16,13.8
			c1.8,1.5,3.8,2.7,5.7,4c3.7,2.6,7.3,5.5,11.2,7.9c6,3.8,12.1,7.2,18.2,10.8c4.7,2.8,9.4,5.6,14.2,8.2c8.1,4.4,16.3,8.5,24.4,12.9
			c5.1,2.8,9.8,6.3,14.9,9c3.2,1.7,6.5,3.5,9.8,5.1l-11.5,2.1c-1.1-0.8-2.2-1.6-3.3-2.4c-6.6-4.5-13.3-8.7-20.2-12.7
			c-8.9-5.1-18.1-9.7-27-14.8c-8.5-5-16.7-10.3-25-15.6c-7.8-5-15.8-9.8-23.2-15.4c-8.6-6.5-16.8-13.7-24.8-20.9
			c-6.1-5.4-11.9-11.1-17.4-17.1c-5.2-5.6-9.9-11.7-14.9-17.6c-1.7-2-3.6-3.7-5.2-5.7c-4.3-5.2-8.5-10.3-12.6-15.6
			c-5.8-7.6-12-15-17-23.1c-4.5-7.3-8-15.3-11.5-23.2c-3.6-8.2-7.1-16.4-9.9-24.9c-2.6-7.6-4.5-15.5-5.7-23.4
			c-1.4-9.6-0.7-19.1,6.3-26.8c1.9-1.9,3.8-3.7,5.9-5.3c2.1-1.8,2.5-4.3,0.9-6.5c-1.5-1.9-4.1-2.5-6.2-1.4
			c-7.2,4.3-12.5,11.2-14.9,19.3c-2.5,8.2-2.4,16.4-1.2,24.8c2.6,17.4,9.4,33.6,16.2,49.6c5.4,12.6,12.2,24.5,20.4,35.5
			c6.4,8.5,13.2,16.8,20,24.9c6,7.2,12.4,14.1,18.7,21.1c5.3,5.8,10.5,11.7,16,17.3c4.5,4.5,9.3,8.6,14.1,12.7
			c7.5,6.2,15,12.5,22.8,18.4c5.5,4.1,11.6,7.3,17.4,11c7.4,4.6,14.7,9.5,22.2,13.9c9.7,5.7,19.5,11.2,29.5,16.5
			c5.7,3,11.2,6.4,16.5,10.1l-3.7,0.7l4.6,0c2.7,1.9,5.4,3.9,8,6.1c6.5,5.5,13.7,10,22.2,12.3c5,1.3,9.8,3.3,14.8,4.8
			c6.5,1.9,13.1,3.7,20,5.6c1.3-0.6,3-1,4-2.1c0.6-0.7,1.1-1.6,1.2-2.5c0.4-2.6-1.4-5-4-5.3c-8.2-1.4-16.3-3.7-24-6.8
			c-4-1.6-8.3-2.4-12.3-3.9c-2.9-0.9-5.7-2.2-8.2-3.9c-1.9-1.3-3.8-2.8-5.7-4.3l17,0c0.7-0.1,1.4-0.3,2.1-0.4c0,0,0,0,0,0
			c-0.7,0.1-1.4,0.3-2.2,0.4l3.4,0c12.1,4.1,24.2,8.4,35.4,14.6c4.4,2.4,9.3,3.6,14,5.4L1169.7,526.9z"/>
		<path class="st0" d="M896.6,48.6c-1.8-0.8-3.7-1.4-5.6-1.9c-11.4-2.2-22.8-4.5-34.3-6.5c-13.6-2.6-27.6-2.6-41.2,0
			c-9.5,1.9-19,3.8-28.2,6.5c-8.7,2.5-17.2,5.8-25.3,9.7c-12.3,6.2-24.2,13.1-36.2,20c-5.5,3.2-10.7,7.1-16,10.8
			c-5.9,4.1-11.8,8.3-17.7,12.6c-8.5,6.2-16.9,12.3-25.2,18.6c-5.7,4.3-11.1,8.9-16.6,13.5c-10,8.5-20.1,17-29.9,25.7
			c-5.9,5.2-11.3,10.9-17,16.3c-4.6,4.4-9.3,8.6-13.7,13.2c-6.4,6.7-12.7,13.5-18.6,20.6c-5.5,6.6-10.6,13.6-15.3,20.7
			c-4.4,6.7-8.3,13.8-12.2,20.8c-5.3,9.8-10.6,19.7-15.5,29.8c-5,10.3-9.4,20.9-14.2,31.3c-2.7,5.8-5.3,11.5-8.3,17.1
			c-4.2,8.2-8.4,16.4-13.2,24.2c-4.5,7.4-9.8,14.4-15,21.5c-2.3,3.2-5,6.2-7.6,9.2l0,15.1c2.3-2.6,4.6-5.2,6.7-7.9
			c4.3-5.3,8.8-10.4,12.6-16c7-10.4,13.7-20.9,20.1-31.7c3.6-6.1,6.4-12.8,9.5-19.2c2-4,3.9-8.1,5.7-12.2
			c3.7-8.2,7.1-16.6,10.9-24.8c2.4-5.1,5.1-10,7.7-15c4.2-8,8-16.3,12.6-24c4.9-8.2,10.4-16,16-23.8c4.2-5.9,8.7-11.6,13.5-17
			c6.9-7.6,14.1-14.8,21.4-21.9c9.6-9.4,19.4-18.6,29.3-27.7c5.3-4.9,11.1-9.2,16.7-13.8c5-4.1,9.9-8.5,15-12.5
			c7.6-5.9,15.4-11.7,23.2-17.4c6.1-4.5,12.2-9.1,18.4-13.4c7.7-5.3,15.6-10.4,23.5-15.5c5.2-3.4,10.6-6.6,16-9.9
			c9.5-6,19.9-10.3,30.4-14.2c8.8-3.1,17.7-5.7,26.7-7.8c12.5-3.1,25.1-5,38.1-3.8c16.8,1.5,33.4,4.6,49.6,9.3
			c2.8,0.8,5.6-0.2,6.5-2.7C900.8,52.3,899.4,49.7,896.6,48.6z"/>
		<path class="st0" d="M1134.9,559.6c11.6,1.3,23.2,1.9,34.8,2.8l-0.1-9.7c-10.5-0.7-21-1.1-31.4-2.3c-12.1-1.4-24.3-2.8-36.1-5.5
			c-10.7-2.5-21-6.5-31.3-10.3c-6.9-2.5-13.5-5.8-20.3-8.7c-9.1-3.9-18.5-7.3-27.4-11.7c-7.4-3.7-14.6-8-21.4-12.7
			c-8.7-5.9-17-12.4-25.4-18.8c-2.5-1.9-4.7-4.4-7.1-6.5c-4.5-4.1-9.3-8-13.6-12.1s-8.2-8.4-12.3-12.6c-5.5-5.7-11.2-11.3-16.6-17.1
			c-4.9-5.2-9.5-10.7-14.2-16c-0.7-0.8-1.5-1.6-2.2-2.3c-4.5-4.7-9.1-9.3-13.4-14.2c-4.9-5.6-9.4-11.5-14-17.3
			c-2.6-3.3-5.4-6.5-7.6-10c-3.9-6.1-7.4-12.5-11.3-18.5c-9.5-15.5-16.3-32.5-20.2-50.3c-3.4-15.9-2.8-32.3,1.7-47.9
			c3.3-11.3,8.5-22.1,17.2-30.5c4.1-4,8.1-8.3,12.8-11.4c6.3-4.2,13.6-6.7,21.1-7.2c1.8-0.2,3.6-0.4,5.3-0.8c2.4-0.4,4.1-2.6,3.8-5
			c-0.4-2.8-2.1-4.7-4.8-4.4c-5.5,0.6-11,1.6-16.4,2.9c-10.3,2.6-18.5,8.9-25.8,16.2c-6,5.8-11,12.5-15,19.8
			c-6.9,13-10.8,27.4-11.5,42.1c-1.1,22.8,4.8,44.2,14.3,64.7c4,8.4,8.6,16.5,13.7,24.3c5.4,8.5,11.3,16.8,17.3,24.9
			c3.7,5,8,9.6,12.1,14.3c6,6.7,11.9,13.4,18,19.9c12.8,13.6,25.4,27.5,38.8,40.6c10.3,10.1,21.4,19.3,32.4,28.5
			c5.7,4.7,11.7,9.1,17.9,13.1c9.9,6.5,20,12.6,31,17.2c6.4,2.7,12.6,5.6,19,8.2c9.4,3.8,18.8,7.5,28.2,10.9
			c8.2,2.9,16.3,6.2,24.8,8C1111.2,556.6,1123,558.2,1134.9,559.6z"/>
		<path class="st0" d="M1141.4,587.7c-22.3,1.8-44.4-1.2-66.6-2.9c-11.4-0.9-22.8-2.7-34.2-4.1c-14.6-1.8-29.2-3.5-43.4-7.6
			c-8-2.3-15.9-4.9-23.8-7.7c-9.6-3.4-19.2-6.9-28.6-10.8c-4.8-2.2-9.5-4.7-14-7.5c-7.4-4.4-14.7-8.7-21.9-13.4
			c-3.3-2.2-6.3-4.7-9.2-7.4c-4.9-4.4-9.8-8.9-14.3-13.7c-5.7-6.1-11.1-12.6-16.6-18.9c-5.1-5.9-10.3-11.6-15.1-17.7
			c-5.6-7.2-11.3-14.4-15.9-22.2c-4.3-7.4-8-15.2-11.1-23.2c-4.5-11.2-8-22.8-12.6-34c-2.8-7-6.7-13.6-10.2-20.4
			c-3.3-6.5-6.8-13-10.2-19.5c-5.5-10.7-8.8-22.1-11.4-33.7c-2.7-12-4.2-24.2-4.5-36.5c0-3.4-2.2-5.8-4.8-5.7
			c-2.9,0.1-4.7,2.3-4.7,5.8c0.1,4.6,0,9.2,0.7,13.7c1.8,11.7,3.4,23.4,6.3,34.8c4.4,17.4,12.7,33.2,21.3,48.8
			c3.3,6,6.3,12.2,9,18.5c3,6.9,5.9,13.9,8.2,21c3.9,12,8.6,23.5,15.2,34.2c5.2,8.4,10.8,16.6,16.7,24.6c3.8,5.1,8.4,9.5,12.6,14.2
			c5.6,6.3,11.3,12.7,16.8,19.1c11.9,14.1,26.1,25.5,41.8,34.9c18.4,11.1,38.2,19.8,58.8,25.8c12.1,3.4,23.9,8.2,36.5,9.8
			c18.2,2.3,36.4,5.1,54.6,7.3c11.6,1.3,23.4,2,35.1,3c16.3,1.3,32.6,1.7,48.9-0.3c6.1-0.8,12.3-1.4,18.4-2.2l0.1-9.6
			c-1.2,0.1-2.3,0.2-3.5,0.4C1158,585.9,1149.7,587.1,1141.4,587.7z"/>
		<path class="st0" d="M469.9,346c0.8-0.8,1.4-1.6,2.1-2.4c1.5-2.3,2.6-5,4.2-7.1c6-7.8,10.3-16.5,14.7-25.2
			c2.5-5,4.6-10.3,6.6-15.5c2.7-7.1,5.1-14.3,7.9-21.4c3.4-8.8,6.3-17.7,10.5-26.1c3.3-6.6,8.1-12.4,12.5-18.4
			c4.8-6.5,9.8-12.8,14.9-19c4.6-5.7,9.2-11.4,14.2-16.7c13-13.8,25.9-27.6,39.3-40.8c17.8-17.4,36.1-34.3,54.2-51.4
			c2-1.9,4-3.9,6.1-5.6c5.5-4.5,11.2-8.9,16.8-13.3c7.2-5.6,14.2-11.5,21.6-16.7c5.9-4.2,12.2-7.8,18.5-11.4
			c6.5-3.8,13-7.6,19.7-10.8c6.4-3,13-5.4,19.6-8c4.3-1.7,8.7-3.2,13-4.9c6.1-2.5,12.1-5.5,18.8-6c3.5-0.3,5.5-2.4,5.2-5.5
			s-2.2-4.3-6-4.1c-7,0.4-13.2,3.2-19.5,5.8c-4,1.7-8.1,3.2-12.2,4.8c-8.9,3.5-18.1,6.4-26.7,10.5s-16.6,9.5-24.7,14.6
			c-7.9,5-15.7,10.4-23.3,15.9c-5.2,3.8-10.1,7.9-15,12.1c-11.3,9.7-22.5,19.4-33.5,29.3c-5.6,5.1-10.9,10.6-16.3,15.9
			S602,134.7,596.5,140c-4.9,4.8-9.5,9.6-14.5,14.6c-5,5-10.2,9.8-15,14.9c-4.6,4.7-8.8,9.8-13.2,14.7c-4.1,4.5-8.3,8.8-12.2,13.5
			c-6.4,7.8-12.7,15.8-18.7,23.9c-4.8,6.4-9.3,13.1-13.9,19.8c-1.3,1.7-2.5,3.5-3.4,5.5c-3,7.5-5.9,15-8.7,22.5s-5.2,15.3-8.2,22.8
			c-2.9,7.1-6.2,14-9.5,21c-1.3,2.6-2.7,5.1-4.2,7.5c-1.6,2.6-3.5,5.1-5.2,7.7L469.9,346z"/>
		<path class="st0" d="M892.6,497.6c3.7,6.2,8,12,12.8,17.4c6.4,7.2,14.4,12.8,22.8,17.7c8,4.7,16.1,9.3,24.3,13.7
			c6.6,3.5,13.4,6.8,20.1,10.1c8.8,4.5,18.1,7.8,27.7,9.9c13.5,2.8,26.9,6.4,40.5,8.2c23.4,3,46.9,5.4,70.5,5.4
			c15.1,0,30.3-0.5,45.4-0.8c4.3-0.1,8.6-0.4,12.9-0.7l0-9.7c-2.9,0.2-5.7,0.3-8.6,0.6c-22.5,1.8-45.2,1.9-67.7,0.4
			c-18.1-1.3-36.1-2.7-54.1-5.1c-12.8-1.7-25.4-5.5-38.1-8c-11.7-2.3-22.1-7.8-32.8-12.4c-6.7-2.9-13-6.8-19.3-10.4
			c-4.4-2.5-8.4-5.4-12.9-7.8c-11.8-6.2-22.1-14.8-30.2-25.2c-1.2-1.6-2.2-3.4-3.3-5.2c-2.5-3.7-5.2-7.3-7.4-11.2
			c-4.2-7.6-7.7-15.6-12.2-23c-6.3-10.7-13.3-21-19.9-31.5c-2.9-4.3-5.6-8.7-8-13.3c-3.5-7-6.5-14.3-9.8-21.5
			c-1.2-2.7-3.4-3.6-5.9-2.6c-0.1,0-0.1,0.1-0.2,0.1c-2.4,0.9-3.6,3.7-2.6,6c1,2.9,2.3,5.6,3.4,8.5c4.2,10.3,9.4,20.1,15.6,29.3
			c5,7.6,10.4,15,15,22.9C878.3,472,885.1,485.1,892.6,497.6z"/>
		<path class="st0" d="M872.3-73.3c10.3,2.9,20.4,6.7,30.4,10.5c7.2,2.7,14.2,5.7,21.2,9c11.2,5.3,22.5,10.5,33.3,16.5
			c9,4.9,17.6,10.6,26.1,16.3c7.6,5.1,15,10.7,22.3,16.2c5.5,4.1,10.9,8.3,16.1,12.8c5.7,5,11,10.4,16.7,15.5
			c5.9,5.4,12.2,10.4,17.9,16c7,7,13.5,14.4,20.2,21.8c2.5,2.8,5.1,5.5,7.4,8.5c3.9,5,7.5,10.2,11.3,15.3c4.5,5.9,9,11.8,13.5,17.7
			c1.7,2.2,3.5,4.3,5.2,6.5c4.1,5.6,8.2,11.3,12.2,16.9c2.8,3.8,5.6,7.4,8.3,11.2c4.2,5.9,8.3,11.8,12.5,17.7c6,8.4,12,16.7,18,25.1
			c1.4,1.9,3,3.7,4.5,5.5v-16.7c-1.6-1.8-3.3-3.5-4.7-5.4c-3.9-5.5-7.4-11.3-11.4-16.8c-5.6-7.7-11.6-15.2-17.3-22.9
			c-5.2-7-10.3-14.2-15.4-21.2c-6-8.1-11.9-16.4-18-24.4c-4-5.3-8.1-10.5-12.3-15.5c-6.9-8.1-13.8-16.3-21-24
			c-4.6-4.9-9.9-9.3-14.9-13.8c-11.2-10.1-22.3-20.3-33.8-30.2c-6.6-5.7-13.8-10.8-20.9-15.9c-7.9-5.6-15.9-10.9-24-16.1
			c-7.8-5-15.7-10-24-14.2c-11.1-5.5-22.5-10.2-33.9-15c-7.1-3-14.2-5.7-21.4-8.6c-3.5-1.4-7.1-2.9-10.6-4.3l-42,0
			c0.8,0.2,1.5,0.5,2.3,0.6C855-76.9,863.8-75.7,872.3-73.3z"/>
		<path class="st0" d="M1014.3,147.2c3.9,5.3,7.8,10.7,11.3,16.3c5,8,9.7,16.3,14.4,24.5c7.5,12.7,13.9,26.1,19,40
			c4.8,13.6,9.5,27.2,13.9,40.9c4.8,14.7,8.6,29.8,14,44.3c4.8,13.4,8.9,27,12.3,40.8c2.1,8,4,16.2,6.7,24
			c3.6,10.2,8.4,20,14.2,29.1c5.4,8.6,10.4,17.5,15.8,26.1c5.7,9,11.5,17.9,17.4,26.8c3.2,4.8,6.5,9.4,9.8,14.1
			c1.6,2.3,3.7,3.6,6.6,3.2l0-10.8c-1.8-2.4-3.5-4.7-5.2-7.1c-0.8-1.1-1.5-2.4-2.3-3.6c-2.5-3.8-5.1-7.6-7.5-11.4
			c-3.8-6.1-7.5-12.4-11.4-18.5c-2.5-3.9-5.4-7.6-7.8-11.6c-4.1-6.7-8-13.6-11.8-20.4c-5.6-9.9-9.8-20.5-12.4-31.6
			c-2.4-10.1-4.7-20.1-7.5-30c-1.8-6.5-4.6-12.8-6.8-19.2c-3.5-10.3-6.9-20.5-10.2-30.9c-4.3-13.7-8.2-27.6-12.7-41.3
			c-2.7-8.5-5.9-16.9-9.5-25.1c-4.9-10.7-10.2-21.3-15.9-31.7c-5.8-10.7-11.8-21.2-18.4-31.5c-3.5-5.5-8.1-10.4-12.5-15.3
			c-2.9-3.2-6.5-5.9-9.7-8.8c-3.6-3.2-7.2-6.5-10.8-9.7c-1.9-1.7-4.9-1.6-6.6,0.4s-1.6,4.9,0.4,6.6c6.5,6,13,12,19.5,18
			C1011.7,145,1013.3,145.9,1014.3,147.2z"/>
		<path class="st0" d="M594.4,225.7c-5.2,7.3-10.7,14.3-15.5,21.8c-5.3,8.2-10,16.7-14.7,25.2c-3.9,7-7.5,14.2-11.1,21.4
			c-3.8,7.7-7.6,15.4-11.1,23.2c-4.8,10.6-9.5,21.2-13.9,32c-4.3,10.2-9.5,20-15.6,29.3c-2.1,3.4-4.6,6.6-7,9.8
			c-4.1,5.4-8,10.9-12.4,16.1s-9.3,9.9-14,14.7c-2.9,3-6.1,5.8-9.1,8.7l0,13.5c2.6-2.4,5.3-4.8,7.8-7.3c6.5-6.5,13.1-13,19.2-19.8
			c5.9-6.4,11.5-13.1,16.6-20.1c5.1-7.1,9.5-14.7,14-22.2c2.2-3.6,4.2-7.3,6-11.1c4.3-9.8,8.1-19.9,12.5-29.6
			c5-11.1,10.3-22,15.5-33c1.9-4.1,3.9-8.3,6-12.3c2.1-3.9,4.3-7.6,6.6-11.4c4.9-8.2,9.8-16.5,14.8-24.6c1.7-2.8,3.9-5.3,5.8-8
			c3.7-5.3,7.3-10.8,11.1-16.1c2.8-3.8,6-7.4,8.7-11.2c3.9-5.6,7.4-11.6,11.3-17.2c4.8-6.9,9.8-13.6,14.8-20.4
			c1.1-1.5,2.5-2.8,3.7-4.2c4.9-5.5,9.6-11.3,14.9-16.5c5.4-5.4,11.3-10.3,17-15.4c2.4-2.1,2.6-4.5,0.8-6.6
			c-1.8-2.3-4.3-2.5-6.8-0.5s-5.1,4.2-7.5,6.4c-5.8,5.3-11.7,10.5-17.1,16.2c-5,5.5-9.7,11.2-14.2,17.1c-4.8,6.2-9.3,12.7-13.8,19.1
			c-2.5,3.6-4.8,7.3-7.3,10.9c-1.5,2.2-3.3,4.2-4.9,6.4C601.7,215.2,598.1,220.5,594.4,225.7z"/>
		<path class="st0" d="M988.5-63.6c6.2,4.7,12.1,9.8,18,14.8c7.3,6.2,14.8,12.4,22,18.8c16.7,14.7,31.7,30.8,41.4,51.2
			c2.1,4.5,4,9.3,6.8,13.3c6.5,9.2,13.4,18.1,20.4,26.9c4.5,5.6,9.9,10.6,14.4,16.2c5.4,6.6,10.5,13.6,15.6,20.5
			c3.1,4.2,5.9,8.7,8.9,13.1c3.6,5.2,7,10.5,10.6,15.8c2.5,3.6,5.1,7.1,7.7,10.7c5.1,7.2,10.2,14.4,15.4,21.6l0.1-16.7
			c0-0.1-0.1-0.1-0.1-0.2v-8.5c0,0,0,0,0,0v-16.1c-1.8-2.3-3.7-4.6-5.4-6.9c-1.7-2.3-3.4-4.5-5-7c-3-4.7-5.7-9.5-8.8-14.1
			c-7.3-10.9-14.8-21.7-22.4-32.4c-3.6-5-7.6-9.7-11.3-14.6c-7-9.3-14-18.5-20.8-27.9c-2.5-3.5-4.4-7.4-6.4-11.2
			c-3.6-7-8.2-13.5-13.6-19.2c-5.4-5.5-10.3-11.6-15.6-17.3c-4.9-5.3-9.9-10.5-14.9-15.8c-4.4-4.7-8.7-9.5-13.3-13.9
			c-4.6-4.4-9.8-8.3-14.6-12.5c-1.4-1.3-2.7-2.7-4-4.2H998l-14.5,0c0,0,0,0,0,0h-17.2c0.3,0.4,0.7,0.8,1.1,1.1
			C974.4-73.4,981.6-68.8,988.5-63.6z"/>
		<path class="st0" d="M738.6,604.4c-8.7-5.1-17-11-25.3-16.7c-6-4.1-11.8-8.4-17.6-12.7c-4.8-3.6-9.3-7.6-14-11.3
			c-6.7-5.3-13.5-10.6-20.3-15.8c-2.3-1.7-4.7-3.2-7.1-4.8c-3.5-2.4-7-5-10.7-7.2c-6.2-3.9-12.5-7.6-18.8-11.3
			c-4.6-2.8-9.1-5.8-14-8c-9.7-4.4-19.5-8.4-29.3-12.5c-13-5.5-26.4-10.1-40.5-11.1c-13.4-1-26.9-0.7-40.3-0.9c0,0,0,0,0,0
			c-2.7,0-4.8,2.1-4.8,4.8c0.2,2.7,2.5,4.8,5.3,4.7c4.8,0,9.5,0,14.3-0.2c15.9-0.8,31.8,1.1,47,5.7c5,1.5,9.8,3.8,14.8,5.6
			c13.8,4.9,27.2,11,39.9,18.3c8.7,5,17.4,9.9,25.7,15.5c10.1,6.8,19.7,14.3,29.4,21.6c2.7,2,5.2,4.4,7.8,6.5
			c5.2,4.1,10.4,8.2,15.7,12.2c3.5,2.7,7,5.6,10.7,8.2c6.1,4.2,12.3,8.3,18.5,12.3c4.3,2.7,8.7,5.3,13.2,7.8c3.5,2,7.1,3.6,10.7,5.4
			l21.6,0c-2.7-1.5-5.4-3.1-8.2-4.5C754.3,612.1,746.1,608.8,738.6,604.4z"/>
		<path class="st0" d="M781.5,606.1c-8.5-4.1-17.2-7.8-25.5-12.4c-8-4.4-15.7-9.5-23.2-14.4s-15.2-9.6-22.4-15.1
			c-6.8-5.3-13-11.4-19.5-17.2c-2-1.8-3.9-3.7-5.7-5.6c-4.5-5-8.7-10.2-13.4-15c-3.2-3.3-6.7-6.3-10.1-9.3h6.3l-7.5-3v2
			c-0.9-0.8-1.9-1.6-2.8-2.5c-5.8-5.2-11.5-10.4-17.3-15.6c-5-4.4-10.3-8.4-15-13c-4-4-7.5-8.6-11.1-13c-3-3.6-5.9-7.2-8.6-11
			c-2.8-4-5.5-8.2-8-12.4c-3.9-6.4-8.9-12.1-10.1-19.9c-0.3-2.1-2.3-3.4-4.7-3.1c-2.3,0.1-4.1,1.9-4.2,4.2c-0.2,1.7,0,3.4,0.6,5
			c1,3.1,2.4,6.2,4.1,9c5.4,8.4,10.8,16.8,16.5,25.1c8.3,12.1,18.2,23,29.4,32.5c9.6,8.3,19.2,16.5,28.5,25.2
			c6.9,6.5,13.2,13.7,19.9,20.5c5.8,6,11.5,12.1,17.7,17.6c5.2,4.4,10.7,8.4,16.4,12c10.3,6.8,20.6,13.6,31.1,20.1
			c6.4,3.9,13.1,7.3,19.7,10.8c5.1,2.7,10.4,5.2,15.6,7.8c3.3,1.7,6.6,3.4,9.9,5.2l21.6,0l-17.6-9.1
			C788.5,609.7,785,607.8,781.5,606.1z"/>
		<path class="st0" d="M495.7,85.3c8.7-10.8,17.7-21.3,26.6-31.9c5.5-6.5,11-13.1,16.8-19.4c6.5-7,13.3-13.7,20.2-20.2
			C565.5,8,572,2.5,578.6-2.8c6.2-5.1,12.8-9.8,19.1-14.6c2.8-2.1,5.4-4.4,8.2-6.5c6-4.7,12.1-9.2,18-13.9
			c5.6-4.5,10.7-9.8,16.7-13.5c12.1-7.4,24.7-14,37.2-20.8c4.7-2.6,9.6-4.8,14.4-7.1l-21.5,0c-3.5,1.8-7,3.6-10.4,5.4
			c-4.9,2.6-9.9,5.2-14.6,8.1c-6.3,3.9-12.5,8-18.6,12.2c-1.7,1.2-3.1,3-4.7,4.4c-7.8,6.3-15.7,12.5-23.5,18.7
			c-6.4,5.1-12.9,10-19.2,15.1C569.4-7,558.7,1,549.1,10.2c-11,10.6-21,22.2-31.2,33.6c-6.1,6.6-11.8,13.6-17.6,20.5
			c-4.9,5.9-9.9,11.8-14.5,17.9c-5,6.8-9.6,14-14.3,21c-0.5,0.7-1.1,1.4-1.7,2.1v16.1c4.6-6.4,9.3-12.7,13.9-19.1
			C487.8,96.7,491.4,90.7,495.7,85.3z"/>
		<path class="st0" d="M692.9,593.1c-10.1-7.2-19.8-14.9-29.7-22.3c-8.3-6.2-16.5-12.5-24.8-18.7c-5.2-3.9-10.4-7.9-15.9-11.4
			c-10.3-6.5-20.8-12.6-32.3-16.8c-7.5-2.8-15-6-22.7-8.1c-8.2-2.3-16.5-4.6-24.9-5.3c-24.2-1.9-48.5-3.1-72.7-4.5l0,9.7
			c18.9,0.9,37.8,1.7,56.7,2.7c13.1,0.7,26,2.9,38.6,6.5c9,2.7,17.8,6,26.2,10.1c6.2,2.7,12.3,5.8,18.1,9.3
			c9.1,5.8,18,12.1,26.7,18.3s17,12.8,25.5,19.2c5.3,4.1,10.5,8.3,15.9,12.2c8.1,5.9,16.3,11.6,24.5,17.3c3.6,2.5,7.4,4.7,11,7.2
			c0.8,0.6,1.6,1.3,2.3,2.1h18.4c-2.9-1.8-5.9-3.6-8.8-5.5C714.2,607.8,703.4,600.6,692.9,593.1z"/>
		<path class="st0" d="M598,297.7c1.5-3.5,3.2-6.8,4.7-10.2c2.3-5,4.4-10.2,6.7-15.2c1.3-2.8,3-5.4,4.4-8c0-0.1,0.1-0.1,0.1-0.2
			c1.3-2.4,0.3-5.5-2.1-6.8c-2.4-1.3-5.4-0.4-6.7,2c-1.8,3.5-3.7,7-5.3,10.5c-2.2,4.9-4.2,10-6.4,15c-3.5,8-7.2,16-10.6,24
			c-4.2,9.7-8.1,19.4-12.3,29.1c-1.4,3.3-3.3,6.3-4.9,9.5c-4.2,8.2-8,16.6-12.5,24.6c-5.1,9.2-10.6,18.1-16.1,27
			c-4.2,6.8-8.4,13.6-13.1,19.9c-4.7,6.3-10,12.1-15.3,17.9c-2.6,2.9-5.5,5.6-8.5,8.1c-4.8,4-9.9,7.6-14.8,11.5
			c-5.2,4.2-10.4,8.5-15.6,12.7l0,11.9c1-0.3,1.9-0.7,2.8-1.3c1.4-1.1,2.5-2.6,3.9-3.7c5.3-4.1,10.7-8,15.9-12.2
			c6.2-5,12.4-10,18.2-15.4c5.7-5.3,11-11,15.9-17c6.2-7.9,11.8-16.2,17.2-24.6c5.1-7.9,9.6-16.1,14.4-24.2c2.1-3.7,4.4-7.3,6.3-11
			c4.2-8.3,8-16.8,12.4-24.9c4.4-8.3,8.2-16.9,11.5-25.6C591.5,313.3,594.8,305.5,598,297.7z"/>
		<path class="st0" d="M601,194.2c-2.7,2.8-5.2,5.6-7.7,8.5c-4.2,4.9-8.6,9.6-12.3,14.8c-6,8.3-11.6,16.7-17.1,25.3
			c-3.7,5.8-7,11.8-10.2,17.9c-3.8,7.2-7.3,14.5-11,21.8c-2.5,4.9-5.1,9.7-7.4,14.6c-4,8.7-7.7,17.5-11.9,26.1
			c-4.4,9.1-9.2,18-13.9,26.9c-1.2,2.3-2.6,4.5-3.9,6.7c-4,6.8-7.8,13.7-12,20.3c-2.7,4.2-5.7,8.2-8.8,12.1
			c-4.2,5.4-8.7,10.7-13.1,15.9c-0.5,0.5-1.1,0.8-1.8,1.1l-0.1,14c0.5-0.3,0.9-0.5,1.3-0.9c11.8-11.7,22.3-24.6,31.5-38.5
			c4.7-7.1,8.8-14.7,12.9-22.2c3.9-7.1,7.6-14.4,11.3-21.6c3.1-6.1,6-12.2,8.9-18.3c3.4-7.1,6.7-14.2,10.1-21.3
			c3.2-6.8,6.4-13.6,9.8-20.3c4.2-8.1,8.3-16.3,13.2-24c6.3-10.1,12.8-20,19.9-29.5c5.9-8,12.7-15.3,19.1-22.8
			c2.3-2.6,2.3-5.2,0.3-7.1C605.9,191.8,603.2,191.9,601,194.2z"/>
		<path class="st0" d="M683.8,606.8c-6-3.8-12.1-7.6-17.8-11.8c-7.1-5.2-13.8-11.1-20.9-16.5c-6.2-4.7-12.7-9-19-13.5
			c-3.7-2.7-7.1-5.7-10.9-8.2c-6-4-12.1-7.8-18.2-11.7c-1.4-0.9-2.8-1.9-4.2-2.8c-16.1-9.7-33.4-15.9-52.3-17.1
			c-23.5-1.5-47-2.5-70.6-3.8v9.7c9.3,0.3,18.6,0.6,27.9,1c11.4,0.5,22.8,0.8,34.1,1.7c13.9,1.1,27.7,2.9,40.5,8.9
			c7.3,3.5,14.4,7.5,21.4,11.6c6.2,3.7,12.3,7.6,18.2,11.8c7.9,5.7,15.6,11.8,23.4,17.6c5.5,4.1,11.1,8,16.7,12.1
			c1.8,1.3,3.3,3,5.1,4.3c6.3,4.6,12.5,9.2,18.9,13.7c3,2.1,6.3,3.7,9.4,5.6c0.3,0.3,0.6,0.6,0.8,1h18.8c-0.7-0.6-1.5-1.3-2.3-1.8
			C696.5,614.7,690.1,610.8,683.8,606.8z"/>
		<path class="st0" d="M597.5-53.3c-7.3,5.7-14.5,11.7-21.6,17.6c-5.3,4.4-10.6,8.7-15.8,13.2c-5.6,4.9-11,10-16.4,15
			c-5.6,5.2-11.4,10.2-16.8,15.7c-7,7.1-13.9,14.4-20.2,21.7s-12.2,15.2-18.2,22.8c-4.2,5.4-8.2,10.9-12.2,16.3
			c-2.2,2.9-4.3,5.9-6.5,8.8v16.7c1.4-1.8,2.9-3.6,4.2-5.5C480,81,486,72.8,491.9,64.7c4.5-6.1,8.7-12.5,13.5-18.4
			c5.2-6.4,10.7-12.6,16.2-18.6c5.2-5.7,10.6-11.4,16.2-16.6c11.4-10.6,23-20.9,34.6-31.3c4.4-4,8.9-7.9,13.6-11.7
			c5.6-4.5,11.5-8.7,17.2-13.1c7.3-5.6,14.5-11.5,22-16.7c7.9-5.5,16.2-10.5,24.3-15.7c0.8-0.5,1.5-1.2,2.2-1.8H634
			c-1.8,1.3-3.6,2.6-5.4,3.9c-4.8,3.4-9.6,6.8-14.4,10.2C608.7-61.3,602.9-57.5,597.5-53.3z"/>
		<path class="st0" d="M649.7,607.3c-6.5-5.4-12.5-11.3-19-16.8c-3.7-3.1-7.8-5.8-11.6-8.7c-6.3-4.9-12.5-9.9-18.8-14.6
			c-5.2-3.9-10.4-7.9-16.1-11c-10-5.5-20.8-9.4-32-11.4c-23.8-4.1-47.6-7.6-71.8-7.8c-3.5,0-7,0.1-10.5,0.2v9.2
			c0.9,0.1,1.8,0.2,2.7,0.2c0,0,0,0,0,0c-0.9,0-1.8-0.1-2.7-0.2v3.9c-0.1-0.1-0.3-0.1-0.4-0.2v10.3c0,0,0,0,0,0v9.6
			c2.8,1.3,5.5,2.7,8.3,3.8c11.1,4.5,22.2,9,33.3,13.4c9.6,3.8,19.3,7.4,29,11.2c5.8,2.3,11.6,4.8,17.3,7.2c4.8,2,9.6,3.9,14.3,5.9
			l13.9-0.1c0,0,0.1,0,0.1,0.1h3.3c2.4,1,4.8,2,7.2,3c4,1.7,8.1,3.2,12.2,4.8c0.9,0.4,1.7,0.9,2.5,1.4h40.4
			c-3.5-2.6-7.2-4.9-10.5-7.8c-2.9-2.5-5.6-5.1-8.4-7.8c0,0,0,0,0-0.1c2.8,2.6,5.6,5.3,8.4,7.8c3.2,2.9,7,5.2,10.5,7.8l18.8,0
			c-3.1-1.9-6.3-3.6-9.4-5.6C656.9,612.6,653.2,610,649.7,607.3z M619.5,594c1.1,0.8,2.3,1.5,3.5,2.2c-0.1,0-0.1-0.1-0.2-0.1
			C621.7,595.5,620.5,594.8,619.5,594c-11.1-8.4-21.9-17.1-33.3-25.1c0,0,0,0,0,0C597.6,576.9,608.4,585.7,619.5,594z M578.7,564
			c-0.1,0-0.1,0-0.2-0.1c-5.2-3.1-10.7-5.7-16.6-7.3c0,0,0,0,0,0C567.9,558.3,573.5,560.9,578.7,564z M539.6,562.4
			c0.5-1.8,1.6-2.9,3.4-3.5c1.7,0.7,3.4,1.3,5,2c5.6,2.5,11.2,5.1,16.8,7.6c5.2,2.3,10.3,4.7,15.5,6.8c1.3,0.5,2.4,0.5,3.4,0
			c0.2,0.1,0.3,0.1,0.5,0.2c2.2,1.1,3.2,3.6,2.4,5.9c-0.1,0.4-0.3,0.7-0.4,1c-7.8-2.6-15.4-5.7-23.1-8.6c-5.5-2.1-10.7-5.1-16.4-6.8
			c-2.5-0.7-5-1.7-7.3-2.8C539.4,563.7,539.5,563.1,539.6,562.4z M519.4,549.3c6.7,1,13.3,2.1,20,3.2c0,0,0,0,0,0
			C532.7,551.4,526.1,550.3,519.4,549.3c-2.6-0.4-5.1-0.7-7.6-1c0,0,0,0,0,0C514.3,548.6,516.9,548.9,519.4,549.3z M488.6,546.6
			c-3.4-0.1-6.8-0.2-10.3-0.2C481.8,546.4,485.2,546.4,488.6,546.6C488.6,546.6,488.6,546.6,488.6,546.6z M631.6,617.1
			c-1.6,1.9-4.4,2.3-6.6,1c-4.5-2.7-8.9-5.7-13.7-7.8c-6.1-2.7-12.6-4.6-18.9-6.7c-0.4-0.1-0.8-0.3-1.2-0.4
			c-11.9-4.9-23.7-9.9-35.6-14.8c-3.6-1.5-7.6-2.2-11.1-3.8c-7.7-3.6-15.3-7.3-23-10.9c-0.5-0.4-1.1-0.8-1.6-1.2
			c-5.1-3.9-10.9-6.1-16.9-7.6c-4.7-2.2-9.4-4.4-14.2-6.6c-0.1-0.5-0.1-1,0-1.5c0.2-1.7,1.9-3.2,3.8-3.8c2.1,0.7,4.2,1.3,6.3,1.7
			c7.4,1.6,14.5,3.8,20.6,8.5c3.4,2.7,7,5,10.8,6.9c5.9,2.9,12.2,5.2,18.2,7.9c14.2,6.3,28.7,11.5,43.4,16.4c6.4,2.1,12.8,4,19,6.7
			c4.8,2.1,9.2,5.1,13.7,7.8c1.4,0.9,3.1,1,4.5,0.4c0.7,0.5,1.4,1.1,2.1,1.6C633.3,612.6,633.3,615.1,631.6,617.1z"/>
		<path class="st0" d="M1049.9-56.7c4.7,4.5,9.3,9.1,13.7,13.9c5.2,5.6,9.9,11.5,15.2,17c4.2,4.5,8.9,8.5,13.3,12.8
			c5.6,5.5,11.2,11,16.7,16.6c5,5,10.2,9.8,14.8,15.1c5.4,6.3,10.4,13,15.4,19.6c6.6,8.7,13.1,17.4,19.7,26.2
			c1.9,2.6,3.9,5.1,5.7,7.7c1.8,2.4,3.5,4.9,5.3,7.3V62.8c-2.6-3.4-5.1-6.9-7.7-10.3c-5.4-7.1-11.2-13.9-16.3-21.2
			c-7.1-10.1-15-19.6-23.8-28.3c-11.1-11.1-22.4-21.9-33.5-32.9c-5.1-5.1-9.9-10.3-14.6-15.7c-9.9-11.4-20.8-22-32.5-31.5
			c-0.8-0.7-1.6-1.4-2.4-2.2h-14.5c2.5,2.1,5,4.2,7.5,6.4C1037.9-67.5,1044-62.2,1049.9-56.7z"/>
		<path class="st0" d="M573.5-56.5c-5.3,4.5-10.6,9-15.8,13.6c-5.9,5.3-11.6,10.8-17.4,16.3c-4.5,4.3-9.2,8.4-13.5,12.9
			s-8.2,9.4-12.3,14.1c-1.8,2.1-4,3.9-5.8,6c-4.8,5.6-9.5,11.4-14.3,17c-1.6,1.9-3.5,3.6-5.1,5.5c-6.5,7.9-12.9,15.8-19.4,23.7v15.6
			c5.2-6.7,10.1-13.5,15.6-20c9.3-11,19-21.8,28.5-32.7c4.1-4.7,8-9.6,12.3-14.1c5.4-5.7,10.9-11.2,16.5-16.7
			c5.8-5.8,11.7-11.5,17.8-17c10.9-9.8,22-19.4,33.2-28.8c5.9-5,12.1-9.3,18.3-14c1.7-1.3,3.2-2.8,4.8-4.2h-16.2
			c-3.7,2.9-7.4,5.9-11,8.9C584.2-65.9,578.8-61,573.5-56.5z"/>
		<path class="st0" d="M1125.1,294.6c-2.1-12.6-6.7-24.2-11.7-35.9c-3.1-7.2-5.9-14.6-8.9-21.8c-0.7-1.8-1.5-3.4-2.5-5.1
			c-1.3-2-4-2.8-6.2-1.7c-1.9,1.3-2.8,3.6-2.1,5.8c2.3,6.2,4.6,12.4,7.1,18.5c1.5,3.7,3.4,7.3,4.8,11.1c3,7.7,6.5,15.2,8.5,23.1
			c3.2,12.9,5.2,26.2,8,39.2c1.2,5.9,2.2,12.2,4.8,17.5c6.1,12.6,12.9,24.9,19.6,37.2c4.1,7.4,8.6,14.5,13,21.7
			c1.5,2.4,3.2,4.8,4.7,7.2c1.9,3.1,3.7,6.3,5.6,9.4l0-18.8c-0.5-0.5-0.9-1-1.3-1.6c-3.4-5.6-6.9-11.1-10.1-16.7
			c-5.2-9.1-9.9-18.4-15.2-27.4c-4.6-7.8-8.6-15.9-10.5-24.8C1130,319.2,1127.1,306.9,1125.1,294.6z"/>
		<path class="st0" d="M490.5,182.2c1.3-2.5,2.9-5,4.3-7.4c3.9-6.5,7.7-13.1,11.7-19.5c2.5-4,5.2-7.7,7.8-11.6c4-6.3,7.9-12.8,12-19
			c2.4-3.6,5.2-7.1,7.8-10.6c4.3-5.7,8.4-11.6,12.8-17.1c3.8-4.8,8-9.4,12.2-13.9c4.8-5.1,9.8-9.9,14.8-14.8
			c1.5-1.3,2.8-2.7,4.2-4.2c1.7-2,1.6-5-0.2-6.8c-1.8-1.9-4.2-1.9-6.5,0.1c-4.5,4-9,7.9-13.2,12.2c-5.1,5.4-9.9,11.1-14.6,16.8
			c-6,7.2-12,14.4-17.7,21.9c-4.2,5.6-7.8,11.6-11.6,17.4c-4.8,7.3-9.7,14.6-14.3,22c-5.5,8.8-10.7,17.8-15.9,26.8
			c-3.5,6.1-6.7,12.4-10.1,18.6c-1.2,2.2-2.7,4.3-4.1,6.5l0,19.9c3.2-5.6,6.5-11.1,9.6-16.7C483.3,196,486.8,189,490.5,182.2z"/>
		<path class="st0" d="M1169.7,503.7c-5.3-3.7-10.8-7.2-16-11.1c-10.7-8.1-21.4-16.2-33.1-22.9c-10-5.7-20.1-11.2-31.1-14.9
			c-6.3-2.1-12.3-4.9-18.6-7.1c-13.5-4.9-27.1-9.6-40.6-14.5c-2.9-1.1-5.7-2.8-8.5-4c-2.7-1.1-5.6-0.2-6.5,2
			c-0.1,0.2-0.2,0.3-0.2,0.5c-1,2.5,0.2,5.3,2.7,6.3c3.1,1.5,6.2,3.2,9.5,4.4c12.7,4.6,25.5,8.9,38.1,13.6
			c14.6,5.4,29.5,10.1,42.9,18.1c8.4,4.9,16.8,9.8,24.8,15.2c6.7,4.5,12.6,9.9,19.2,14.5c5.6,3.9,11.5,7.1,17.3,10.7L1169.7,503.7z"
			/>
		<path class="st0" d="M1101.6-26.4c3.9,4.4,8.2,8.5,12.1,12.9c4.3,4.8,8.4,9.7,12.6,14.6c5.7,6.6,11.3,13.1,17,19.7
			c8.5,9.9,17,19.8,25.5,29.7c0.3,0.2,0.6,0.4,0.9,0.5V36.4c-0.7-0.3-1.3-0.6-1.9-1.1c-4.5-5.2-8.9-10.4-13.3-15.7
			c-2.6-3-5-6.1-7.6-9.1c-7.2-8.3-14.4-16.6-21.6-24.8c-5.4-6.2-10.9-12.3-16.4-18.4c-3.9-4.4-8.1-8.5-12-12.9
			c-4.5-5.2-8.7-10.6-13.1-15.9c-5.1-6-10.3-11.9-15.4-17.8h-13.5c6,6.6,12.1,13.2,18,19.9C1082.6-48.5,1092-37.4,1101.6-26.4z"/>
		<path class="st0" d="M952-61.4c4.1,2.4,8.1,5.3,12.1,7.8c8.1,5.1,16.1,10,24.4,15.1c8.2,5.1,16.7,9.7,24.5,15.4
			c7.3,5.3,14,11.7,20.8,17.7c1.5,1.3,2.5,3.1,3.9,4.5c1.5,1.7,4,2,5.9,0.9c1.8-1,2.6-4,1.6-6c-0.7-1.6-1.7-3.2-2.9-4.5
			c-6.6-6-13.1-12.1-20.1-17.6c-6.4-4.9-13.1-9.4-20-13.5c-7.6-4.7-15.5-8.9-23.1-13.6c-8.1-5-15.9-10.3-23.9-15.5
			c-1.6-1.1-3.2-2.2-4.9-3.2c-3.1-1.9-6.3-3.7-9.5-5.5l-19.4,0c2.4,1.5,4.6,3.2,7,4.5C936.3-70.3,944.2-66,952-61.4z"/>
		<path class="st0" d="M1097.8-55.7c4.8,4.6,9.9,9,14.3,14c7.8,8.9,15.3,18.2,22.7,27.4c4.7,5.9,9.1,12.3,13.7,18.1
			s9.5,11.4,14.3,17c2.2,2.6,4.5,5,6.8,7.5v-14c-6.9-8.5-13.9-17.1-20.7-25.7c-5.4-6.8-10.5-14-16-20.7c-5.4-6.5-11-13-16.8-19.1
			c-5.7-5.9-11.8-11.4-17.7-17.1c-3.8-3.6-7.4-7.4-11.1-11.1h-13.5c2.2,2.3,4.4,4.6,6.7,6.8C1086.3-66.9,1092-61.3,1097.8-55.7z"/>
		<path class="st0" d="M637.8-41.3c-3.8,1.9-7.2,4.7-10.8,7c-2.7,1.7-3.8,6-2,8.5c1.4,2,5,1.9,7.5,0c3.3-2.5,6.6-5.3,10.3-7.2
			c11.6-5.9,23.3-11.8,35.2-17.2c11.6-5.3,23.5-10.1,35.2-15.1c11.3-4.8,23.1-8.4,35.1-10.7c5.4-1,10.7-2.2,16-3.3l-41.5,0
			c-0.8,0.4-1.5,0.8-2.4,1.1c-4.8,1.7-9.8,3-14.5,5c-11.3,4.9-22.5,10-33.7,15.2C660.8-52.5,649.2-47,637.8-41.3z"/>
		<path class="st0" d="M1154.2,68.4c-4.9-7.3-10-14.5-15-21.6c-1.2-1.7-2.7-3.1-3.9-4.8c-4.1-5.2-8.1-10.4-12.2-15.6
			c-2.8-3.5-5.8-6.8-8.7-10.2c-2.1-2.5-4.9-3.5-7.3-2.3c-2.8,1.4-3.3,5-1,7.8c5.2,6.1,10.5,12.2,15.7,18.3c1.5,1.8,2.9,3.8,4.3,5.7
			c3.1,3.9,6.2,7.8,9.1,11.9c4.2,6,8.2,12.1,12.2,18.2c2.4,3.6,4.8,7.3,7.3,10.9c5,7.4,10,14.8,15,22.1l0.1-16.7
			c-0.2-0.2-0.4-0.3-0.6-0.5C1164.2,84,1159.3,76.1,1154.2,68.4z"/>
		<path class="st0" d="M1116-58.7c5.2,5.8,10.6,11.4,15.6,17.3c7,8.1,13.7,16.5,20.6,24.7c3.8,4.5,7.6,9,11.3,13.6
			c2.2,2.7,4.2,5.5,6.3,8.2v-15.6c-2.3-2.8-4.6-5.7-6.9-8.4c-5.5-6.5-10.9-13.2-16.6-19.6c-11.4-13-22.8-26-34.2-39c0,0,0,0,0,0
			c0,0,0,0,0,0c11.4,13,22.9,26,34.2,39c5.6,6.5,11.1,13.1,16.6,19.6c2.3,2.8,4.6,5.6,6.9,8.4v-6.5c0,0,0,0,0,0V-33
			c-1.8-2.2-3.6-4.3-5.5-6.5c-1.7-1.9-3.6-3.7-5.2-5.7c-5-5.8-9.9-11.7-15-17.4c-3.7-4.1-7.8-8.1-11.6-12.1c-1.4-1.5-2.7-3-4.1-4.6
			h-13.5h-4.3c0,0,0,0,0,0c0,0,0,0,0,0H1097c4.9,5.2,9.9,10.3,14.8,15.5C1113.3-62.2,1114.5-60.3,1116-58.7z"/>
		<path class="st0" d="M523.7-62.4c5.6-5.1,11.4-10,17-15c0.6-0.6,1.2-1.2,1.8-1.9h-15.1c-1.4,1.4-2.9,2.8-4.3,4.2
			c1.4-1.4,2.9-2.8,4.3-4.2h-10.7h-0.1h-13.9c-5.5,5.1-11.1,10.1-16.5,15.3c-2.6,2.5-4.8,5.3-7.3,7.9c-3,3.2-6.1,6.4-9.1,9.7V-32
			c2-2.3,4-4.6,6.1-6.9c3.5-3.7,6.9-7.4,10.4-11c-3.5,3.6-6.9,7.3-10.4,11c-2.1,2.2-4.1,4.6-6.2,6.9l0,10.2c0,0,0,0,0,0v14.5
			c0.5-0.3,0.9-0.7,1.4-1.1C487.5-27.5,505-45.6,523.7-62.4z M485.9-39.1c-3.6,3.9-7.1,8-10.7,12C478.8-31.1,482.3-35.2,485.9-39.1z
			"/>
		<path class="st0" d="M1151.5,332.2c-2.8-7.6-5.3-15.3-8.1-23c-1.1-3-3.2-4.1-6.3-3.3c-2.2,0.5-3.2,2.1-2.9,5.2
			c0.1,1.2,0.4,2.3,0.8,3.4c3.1,8.4,6,16.9,9.3,25.2c3.8,9.4,7.9,18.8,12.3,27.9c2.1,4.3,5.1,8.2,7.8,12.2c1.7,2.6,3.5,5.1,5.3,7.6
			l0-17.3c-2-3.2-4-6.5-6-9.7C1158.3,351.6,1155,341.9,1151.5,332.2z"/>
		<path class="st0" d="M519.1-48.1C504.7-33.7,490.3-19.4,475.9-5c-2.1,2.1-4.1,4.3-6.1,6.4V16c1.3-1.2,2.6-2.4,3.8-3.7
			c2.4-2.7,4.8-5.5,7.2-8.2c4.9-5.3,9.5-10.6,14.7-15.9c-5,5.2-9.8,10.6-14.6,15.9c-2.4,2.7-4.8,5.5-7.2,8.2
			c-1.2,1.3-2.5,2.4-3.8,3.7l-0.1,11.4c0,0,0,0,0,0v15.6c2.5-2.9,4.9-5.8,7.4-8.7c5.6-6.5,11.1-13.1,16.7-19.6
			c4.8-5.6,9.5-11.3,14.6-16.7c4.4-4.6,9.2-8.9,13.8-13.4c5.1-5.1,10-10.4,15.3-15.4c4.9-4.8,10.2-9.2,15.2-13.9
			c1.6-1.5,3.1-3.2,4.8-4.7c8.2-7.1,16.4-14.2,24.6-21.2c3.4-3,7-5.8,10.4-8.7H577c-2.5,2.1-4.9,4.3-7.4,6.5
			c-5.8,5.2-11.6,10.4-17.3,15.6c-5.4,4.8-10.9,9.5-16.1,14.5c-6,5.6-11.7,11.6-17.5,17.3c-4.1,4-8.4,7.7-12.4,11.7
			c-2.3,2.3-4.4,4.9-6.6,7.4c-4.4,5-8.8,10-13.3,15c4.4-5,8.8-10,13.2-15c2.2-2.5,4.3-5.1,6.6-7.4c4.1-4,8.3-7.7,12.4-11.7
			c5.9-5.7,11.5-11.7,17.5-17.3c5.2-5,10.7-9.7,16.1-14.5c5.8-5.2,11.5-10.4,17.3-15.6c2.4-2.2,4.9-4.3,7.4-6.5h-9.2h-14.5
			c0,0,0,0,0,0h-10.7c-0.6,0.7-1.2,1.3-1.8,1.9c-5.7,5-11.4,9.9-17,15C505-45.6,487.5-27.5,471.3-8.3c-0.4,0.4-0.9,0.8-1.4,1.1
			l-0.1,8.6c2.1-2.1,4-4.3,6.1-6.4C490.2-19.4,504.6-33.8,519.1-48.1z M548.3-62.3c3.7-3.2,7.6-6.4,11.3-9.6
			C555.9-68.7,552.1-65.5,548.3-62.3c-2.6,2.3-5,4.9-7.5,7.2C543.3-57.4,545.7-60,548.3-62.3z"/>
		<path class="st0" d="M1139.1-75c2,2.4,4,4.8,6,7.2c2.2,2.6,4.6,5,6.7,7.7c5.4,6.7,10.7,13.6,16.1,20.3c0.5,0.7,1.2,1.3,1.8,1.9
			v-15.6c-1.3-1.4-2.7-2.6-3.9-4.1c-4-5-7.8-10.2-11.8-15.2c-0.2-0.3-0.5-0.6-0.8-0.9v-4l-3.8-4.8h-11.3l2.4,3.2h-4.9
			C1136.9-77.9,1138-76.4,1139.1-75z"/>
		<path class="st0" d="M488.1,281.9c1.4-2.8,0.8-5.3-1.5-6.5c-2.8-1.4-5.7-0.5-7.1,2.2c-1.8,3.4-3.3,7-5,10.4
			c-1.4,2.9-3.1,5.6-4.6,8.4l0,21c1.9-3.6,3.9-7.2,5.8-10.8C479.8,298.4,484,290.2,488.1,281.9z"/>
		<path class="st0" d="M486.3-64.1c5.5-5.2,11-10.2,16.5-15.3h-7.5c0,0,0,0,0,0h-14.5l-10.8,9.7v13.4v9.7c3-3.2,6.1-6.4,9.1-9.7
			C481.4-58.8,483.7-61.6,486.3-64.1z"/>
		<polygon class="st0" points="469.9,-79.3 469.9,-69.6 480.6,-79.3 		"/>
		<polygon class="st0" points="1152.8,-91.8 1149,-91.8 1152.8,-86.9 		"/>
		<path class="st0" d="M809,184.2c9.3-6.7,19.4-11.8,29.9-16.2c5.2-2.1,10.6-3.8,16-5.3c18.1-5.3,36.2-7.7,54.8-2.6
			c13.8,3.7,27.1,9.5,39.3,17c3.8,2.5,7.5,5.2,11,8.1c4.7,3.7,9.6,7.2,13.8,11.4c5.8,5.6,11,11.7,16.4,17.6c1.3,1.4,2.8,2.7,3.6,4.3
			c4,8.1,8,16.2,11.5,24.5c3.8,8.8,7.1,17.8,10.7,26.7c5.2,13.1,10.4,26.3,15.8,39.4c4.4,10.9,8.9,21.9,13.6,32.7
			c3.3,7.5,7,14.9,10.8,22.2c3.5,6.7,7.1,13.2,11,19.6c4.1,6.8,8.6,13.4,13,20c1.9,2.8,3.8,5.6,5.9,8.3c1.4,1.9,3,3.5,4.8,4.9
			c1.7,1.3,4.2,0.9,5.4-0.8c0.1-0.1,0.2-0.3,0.2-0.4c0.8-1.5,0.9-3.3,0.4-4.9c-0.8-2-2.4-3.7-3.7-5.5c-2.6-3.5-5.5-6.9-7.8-10.6
			c-3.9-6.2-7.7-12.5-11.3-18.8c-4.3-7.5-8.6-15.1-12.4-22.8c-4.9-9.9-9.7-20-14.1-30.1c-4.8-11.3-9-22.8-13.5-34.2
			c-3.9-9.9-7.7-19.9-11.6-29.8c-3.7-9.1-7.3-18.3-11.2-27.3c-2.3-5.4-4.7-11-8-15.8c-7.9-11.4-17.4-21.7-28.2-30.3
			c-5.4-4.4-10.6-9.1-16.3-13c-6.1-4.2-12.5-7.9-19.1-11.3c-5-2.5-10.1-4.6-15.3-6.3c-9.6-3.4-19.4-6.3-29.7-6.9
			c-19.1-1.2-37.3,3.3-55,9.6c-9.4,3.3-18.2,8.3-27,13c-9.7,5.4-18.4,12.2-26,20.2c-1.3,1.4-2.6,3-3.7,4.6
			c-2.7,3.7-5.9,7.1-7.9,11.1l11.2,0.3C792.5,197.9,800.2,190.4,809,184.2z"/>
		<path class="st0" d="M774.2,234.9c1.8-5.8,3.9-11.5,6.2-17.1c1.6-3.9-6.3-6.5-3.9-9.8l-4.4-1c-6.6,13-8,26.3-11.9,40.4
			c-5.4,19.5-7.3,39.4-7.8,56.7c0,14.4,1.5,28.8,4.4,42.9c2.9,14.2,5.3,28.5,8.3,42.8c2.7,12.6,7.3,24.7,12.2,36.6
			c4.6,11.2,9.3,22.3,13.9,33.5c3.9,9.1,8.8,17.6,14.6,25.5c6.4,9,13.9,17.2,20.9,25.8c2.5,3,5.2,5.9,7.6,9c1.8,2.3,4.5,2.9,6.8,1.1
			c0.1-0.1,0.2-0.1,0.3-0.2c2-1.6,2.3-4.4,0.7-6.4c-1.1-1.5-2.3-3-3.5-4.4c-8.3-10.4-16.8-20.7-25-31.2c-3.1-3.7-5.8-7.8-8-12.1
			c-5.4-11.2-10.3-22.6-15.2-34c-2.4-5.6-4.6-11.3-6.6-17c-3-8.2-6.2-16.5-8.4-24.9c-2.5-9.6-4.1-19.5-5.8-29.2
			c-2.4-12.9-5.1-25.6-6.6-38.6c-2.5-21.9-0.2-43.7,4.6-65.2C769.2,250.2,771.8,242.5,774.2,234.9z"/>
		<path class="st0" d="M1034.1,335.2c-2.9-5-6.2-9.9-8.6-15.2c-2.8-6.1-7.7-10.3-12-14.9c-5.4-5.9-11.7-11.2-16.4-17.6
			c-4.9-6.6-8.2-14.4-12.8-21.4c-5.6-8.6-10.7-17.6-18.2-24.8c-2-2-3.9-4.2-6.1-5.9c-4.9-3.7-10-7.2-15.1-10.5
			c-7.8-5-15.9-9.2-25.3-10.7c-8.4-1.3-16.9-0.6-24.9,2.2c-8.8,3-16.4,8.3-23.6,14.2c-6.7,5.3-12,12.1-15.4,20
			c-3.6,8.8-5.5,18.2-5.3,25.6c0,13,2,25.9,6,38.3c3.8,12.7,9,25,15.6,36.5c4.5,7.8,8.7,15.9,13.9,23.2c6.4,9,13.7,17.5,20.7,26
			c4.8,5.8,9.9,11.5,15,17.1c6.2,6.8,12.5,13.4,18.9,20c5,5.2,10.3,10.1,15.6,15.1c5.5,5.2,11,10.5,16.7,15.5
			c4.7,4.1,9.2,8.5,14.3,12c9.8,6.8,20,13.2,30.1,19.5c5,3.1,10.5,5.4,15.7,8.1c6,3.1,11.9,6.2,17.8,9.3c1.5,0.8,2.9,1.8,4.3,2.7
			c6.4,4.2,13.1,7.8,20.6,9.7c0.1,0,0.1,0,0.2,0.1c2.7,0.6,5.4-1,6-3.7c0.5-2.4-1.2-4.8-3.9-5.6c-1.9-0.5-3.8-1.2-5.5-2
			c-4.3-2.2-8.5-4.6-12.7-6.8c-4.8-2.5-9.7-5-14.5-7.5c-4.5-2.5-8.9-5-13.3-7.5c-7.5-4.1-15.2-7.9-22.5-12.4
			c-5.8-3.5-11.3-7.5-16.6-11.7c-7.7-6.3-15.1-12.8-22.5-19.5c-5.7-5.2-11-10.8-16.5-16.1c-5.7-5.5-11.7-10.8-17.2-16.5
			c-4.6-4.8-8.7-10-13-15c-6-6.9-12.1-13.7-17.8-20.8c-4.4-5.4-8.4-11.1-12.2-16.9c-5.3-8.2-10.8-16.3-15.2-24.9
			c-6.5-12.8-12.3-26-15.3-40.3c-2.7-12.9-4.6-25.8-1.2-38.9c1.9-7.5,4.8-14.5,10.4-20.3c3.5-3.5,7.3-6.7,11.5-9.5
			c5.1-3.7,10.8-6.6,16.9-8.5c11.9-3.7,22.8-1,33.4,4.5c3,1.6,5.8,3.6,8.8,5.2c6.6,3.5,12,8.7,17.2,13.9c2.3,2.5,4.4,5.1,6.3,7.9
			c2.7,3.7,5.5,7.3,7.8,11.3c4.2,7.1,7.9,14.4,12.2,21.4c5.5,9.1,13.8,15.8,21,23.5c2.4,2.6,5.4,4.8,7.3,7.7
			c2.8,4.2,4.7,8.8,7.2,13.2c1.3,2.5,2.8,5,4.5,7.3c0,0,0,0.1,0.1,0.1c1.7,2,4.7,2.3,6.7,0.6
			C1034.8,339.9,1035.2,337.3,1034.1,335.2z"/>
		<path class="st0" d="M1103.1,602.8c-7.6,0.3-15.3,0.4-22.8,1.1c-16.8,1.5-33.5,3.5-50.3,5.1c-5,0.5-10.1,1.4-15,0.7
			c-10.8-1.5-21.5-4-32.2-5.8c-12.9-2.1-25.9-4-38.8-6c-14.1-2.1-27.9-5.7-41.2-10.8c-10.8-4.2-21.8-8.3-32.2-13.3
			c-13.4-6.3-26-14-37.8-22.9c-8.1-6.2-16.1-12.6-23.9-19.1c-5.6-4.7-10.8-9.9-16.5-14.5c-7.9-6.3-15.2-13.3-21.9-20.8
			c-3.9-4.4-8-8.7-11.4-13.5c-5.4-7.7-10.5-15.8-15.4-23.8c-3.7-6.1-6.9-12.5-10.2-18.9c-3.9-7.5-7.4-15.3-10.2-23.3
			c-5-14.6-8.1-29.8-9.2-45.1c-0.7-9.4-1.9-18.8-2.9-28.1s-2.5-18.5-3.2-27.8c-0.9-12,1.1-23.8,3.8-35.4c0.8-3.3-0.5-5.1-3.5-5.8
			c-0.1,0-0.3-0.1-0.4-0.1c-2.5-0.5-4.8,1.1-5.3,3.6c-3.7,15.3-5.3,30.7-3.5,46.4c2.6,22,5.1,44.1,7.7,66.1
			c1.5,11.8,4.6,23.2,9.1,34.2c5,12.3,11.4,24.1,17.6,35.9c4,7.6,8.8,14.9,13.5,22.2c2.3,3.3,4.8,6.5,7.4,9.5
			c3.7,4.5,7.1,9.2,11.3,13.1c11.8,11,23.9,21.7,36,32.5c4.9,4.4,9.8,8.8,15.1,12.8c7.4,5.6,14.9,11.1,22.8,16
			c9.7,6.2,19.8,11.9,30.1,17c10.1,4.8,20.9,8.5,31.4,12.5c16.7,6.4,34,9.8,51.7,12.2c14.7,2,29.1,5.1,43.7,7.7
			c7.3,1.3,14.7,2.4,21.5,3.5c6.5-0.8,12.4-1.6,18.3-2.4c22.2-2.9,44.6-4.7,67-5.4c3.7-0.1,6.1-2,6.1-5
			C1109.2,604.6,1106.7,602.7,1103.1,602.8z"/>
		<path class="st0" d="M817,327c2.4,6.6,5.6,12.8,7.8,19.4c2.1,6.8,5.3,13.1,9.3,18.9c4.2,5.9,8.8,11.5,12.7,17.6
			c5.1,8.1,9.9,16.4,14.4,24.8c4.9,9.1,9.2,18.6,14.2,27.7c4.3,7.7,8.9,15.1,13.9,22.3c7.2,10.3,14.6,20.5,22.4,30.4
			c5.2,6.7,11.1,12.9,17,19.2c3,3.2,6.3,6.1,9.7,8.8c5.1,4,10.5,7.8,15.9,11.4c4.1,2.8,8.1,5.7,12.6,7.6c9.4,4,18.7,8.5,28.8,11.1
			c11.3,2.9,22.3,6.6,33.4,10.1c13.3,4.2,27,5.6,40.8,6.5c3.9,0,7.9,0.1,11.8,0c1.2,0,2.8-0.5,3.3-1.3c0.9-1.5,1.8-3.5,1.4-5.1
			c-0.5-2.2-2.4-3.2-5-3.2c-20.7,0.4-41.2-2.7-60.9-9.1c-7.8-2.5-15.4-5.6-23.3-7.5c-10.5-2.5-20-7.4-29.5-12
			c-6-3-11.6-6.7-16.8-10.9c-6.1-4.8-11.9-10-17.4-15.5c-5.7-5.7-10.8-11.9-16.2-17.9c-1.4-1.7-2.6-3.5-4-5.3
			c-2.8-3.6-5.8-7.1-8.4-10.8c-4.4-6.4-8.5-13-12.8-19.5c-2.3-3.6-4.9-7.1-6.9-10.9c-4.1-7.7-7.9-15.6-11.9-23.4
			c-2.7-5.3-5.5-10.4-8.5-15.6c-3.9-6.9-7.8-13.8-12.1-20.5c-3.1-4.9-7.1-9.2-10.3-14c-2.8-4-5.1-8.3-7.1-12.9
			c-4.2-10.1-7.8-20.4-11.8-30.5c-4-9.7-7.4-19.6-10.2-29.7c-3.9-15-4-30.7-0.2-45.7c2.2-9.2,6.5-17.9,12.4-25.4
			c4.9-6.3,10.8-11.8,17.5-16.1c2.3-1.6,4.8-3.1,7.3-4.4c3.1-1.4,6.4-2.3,9.6-3.5c2.4-0.8,3.8-3.2,3.4-5.7c-0.8-2.4-3.2-3.9-5.7-3.4
			c-4,1.1-8.1,2-11.7,3.9c-9.7,5.2-18.4,12.1-25.6,20.5c-10.2,11.7-15.8,25.4-18.2,40.6c-2,13-1.5,26.3,1.5,39.2
			C806.8,301,812.2,313.9,817,327z"/>
		<path class="st0" d="M794.2,498.2c4.1,5.4,7.9,11,12.5,16c4.8,5.2,10.3,9.9,15.5,14.7c2.2,2.2,4.6,4.3,7,6.2
			c5,3.8,10,7.4,15.2,10.9c9.4,6.3,19,12.4,28.5,18.6c3.7,2.4,7.3,4.9,11.1,7.1c4.9,2.8,10,5.5,15.1,7.9c2.7,1.2,5.4-0.9,5.6-4
			c0.2-2.5-0.7-4-3.1-5.3c-5.8-3-11.3-6.4-16.9-9.7c-2.3-1.4-4.4-3-6.7-4.4c-7.4-4.5-15.2-8.7-22.4-13.6
			c-7.5-5.1-14.6-10.8-21.7-16.6c-5.9-4.7-11.6-9.8-17-15.1c-4.6-4.6-8.2-10.1-12.6-14.9c-6.6-7.3-11.5-15.8-16.1-24.3
			c-5.6-10.2-10.7-20.6-14.2-31.8c-3.3-10.5-7-20.8-10.7-31.2c-5.5-16.1-9.7-32.6-12.8-49.3c-1.8-9.3-3.4-18.7-4.6-28.1
			c-1-8.5-1.5-17-1.9-25.5c-0.7-12.8-0.8-25.7,2.6-38.2c3.9-14.4,8.8-28.6,14.8-42.3c0.6-1.2,1-2.5,1.2-3.8c0-2.4-1.6-4.5-4-5
			c-2.3-0.5-4.2,0.7-5.3,3.5c-3.2,8.3-6.1,16.6-9.3,24.8c-6.5,16.5-10.4,33.4-9.8,51.2c0.5,9.3,0.7,18.6,1.4,28
			c1.4,19.5,5.8,38.4,10,57.4c2.8,12,6.1,23.8,10.1,35.4c4.6,13.8,10,27.4,15.2,41c4,10.5,9.6,20.2,15.5,29.7
			C788.6,491.1,791.5,494.6,794.2,498.2z"/>
		<path class="st0" d="M936.4,581.1c14.5,6.5,29.2,12.3,44.6,16.2c13.6,3.4,27.3,5.9,42.6,5.9c1.4-0.1,4-0.1,6.6-0.3
			c3.3-0.3,4.8-2,4.7-5.3c-0.1-2.6-2.1-4.3-5.2-4.1c-20.8,1.3-40.7-3.2-60.2-9.5c-12.5-4-24.8-8.7-36.4-15.1
			c-8.8-4.8-17.8-9.1-26.2-14.6c-8-5.2-15.3-11.5-22.7-17.5c-5.7-4.7-11.1-9.8-16.5-14.8c-1.7-1.8-3.3-3.7-4.8-5.7
			c-6-7.2-12.3-14.2-18.1-21.6c-4.5-5.8-8.8-11.9-13-18c-3.4-4.9-7.1-9.7-9.9-14.9c-4.8-9.4-9.1-19-13.4-28.7
			c-2.8-6.4-5.2-13-7.8-19.5c-2.2-5.5-4.2-11-6.4-16.5c-1.8-4.2-3.7-8.4-5.9-12.4c-0.1-0.2-0.2-0.3-0.3-0.5c-1.2-2-3.9-2.6-5.9-1.4
			c-2.5,1.3-3.2,3.7-2,6.4c1.2,2.7,2.6,5.3,3.7,8.1c4.3,10.8,8.4,21.7,12.8,32.5c2.5,6,5.7,11.8,7.7,18c3,9,7.9,17,12.7,25
			c3,5.2,6.9,10,10.5,14.8c6.1,8.1,12,16.2,18.4,24c5.4,6.6,11.1,12.9,17,19c4.7,4.9,9.6,9.6,14.8,14c5.1,4.3,11,7.7,16.1,12
			c7.4,6.2,15.9,10.5,24.1,15.4C924,575.4,930.1,578.4,936.4,581.1z"/>
		<path class="st0" d="M794.8,334.2c3.3,10.8,8.2,21.2,12.5,31.7c3.3,8.1,7.1,16,10.4,24.1c2.8,6.8,4.7,14,7.7,20.6
			c4.3,9.4,9,18.7,13.9,27.8c5.6,10.3,11.7,20.5,17.6,30.7c1.7,3,4.6,4.3,6.8,2.9c2.4-1.5,3-4.3,1.5-7.3c-2.2-4-4.3-8-6.6-12
			c-5.3-9.4-10.7-18.6-15.8-28c-3.1-5.7-5.9-11.5-8.3-17.4c-3.9-9.7-7.2-19.7-11.1-29.4c-3.2-7.9-6.7-15.6-10.2-23.3
			c-6.4-13.5-11.1-27.8-14-42.5c-2.2-11.4-3.5-23-5.3-34.5c-2.4-15.4-3.3-30.8,0.5-46.2c1.2-4.5,3-8.8,5.4-12.8l-11,0.2
			c-4.9,9.4-6.2,19.6-6.5,29.9c-0.6,17.1,1.9,34,5,50.8C789.4,311.2,791.4,322.9,794.8,334.2z"/>
		<path class="st0" d="M827.5,190.4c7.5-4.9,15.6-8.3,24-11.3c2.6-0.9,3.7-2.9,3.3-5.4c-0.5-2.5-2.1-3.9-5.3-3.9
			c-0.9,0.2-1.9,0.5-2.8,0.8c-9,3.6-17.9,7.2-25.9,12.8c-6.3,4.4-12.1,9.4-17.5,14.9c-5.6,5.9-10.3,12.6-14,19.9l11.9-1.7
			c2-3.2,4.3-6.3,6.8-9.2C813.5,200.8,820.1,195,827.5,190.4z"/>
		<path class="st0" d="M735.8,240c2.8-6.5,6.6-12.7,10.4-18.8c2.5-3.7,5.1-7.3,8.1-10.7c3.9-4.8,7.5-9.6,11.9-14.1s9.3-8.6,14-12.8
			c8.1-7.1,16.7-13.4,25.8-19.1c11.8-7.4,24.3-12.9,38.2-15c3.9-0.6,7.8-1.4,11.6-2.2c3.1-0.7,4.6-2.7,4.1-5.3c-0.5-2.8-3-4.4-6-3.9
			c-4.4,0.8-8.9,1.3-13.2,2.4c-8.1,2.2-16.2,4.3-24.1,7.3c-4.8,1.8-9.1,4.9-13.5,7.7c-6.1,3.8-12.4,7.5-18.1,11.9
			c-7.5,5.9-14.7,12.2-21.6,18.9c-6.5,6.4-12.6,13.2-18.3,20.3c-4.4,5.5-7.6,11.8-11.5,17.7c-6.9,10.4-10.7,22-13.2,34.1
			c-3.2,15.9-3.5,32.1-3.2,48.2c0.3,20.9,1.4,41.7,5.9,62.3c2.1,9.8,3.7,19.7,8,28.9c1.4,2.9,3.8,4.1,6.2,3c2.7-1.2,3.6-3.7,2.4-6.7
			c-2.2-5.9-4.5-11.8-5.5-18.2c-1.5-10.2-4.1-20.2-5.3-30.4c-2.8-24-3.2-48.2-1.2-72.3C728.6,261.8,731.3,250.5,735.8,240z"/>
		<path class="st0" d="M944.3,259.1c3.9,5.1,7.3,10.5,11.1,15.8c3.8,5.3,7.6,10.5,11.7,15.7c5.3,6.9,10.8,13.8,16.2,20.6
			c1.2,1.5,2.4,3.1,3.6,4.6c6.2,7.6,13,14.9,18.4,23c6.3,9.5,11.6,19.7,17.3,29.6c2.5,4.4,5,8.9,7.7,13.2c0.1,0.1,0.1,0.2,0.2,0.3
			c1.5,2.2,4.5,2.7,6.6,1.2c1.9-1.4,2.4-4.7,1.1-6.8c-2.5-4.1-5-8.2-7.4-12.4c-2-3.4-3.8-6.9-5.8-10.3c-4.4-7.7-8.3-15.7-13.4-22.9
			c-6-8.4-13-16.1-19.6-24.1c-2.8-3.5-5.6-7-8.3-10.5c-6.1-7.9-12.1-15.7-18.1-23.6c-5.2-7-10.1-14.3-15.5-21.1
			c-5.8-7.2-12.5-13.5-21-17.7c-5.5-2.8-11.4-4.5-17.6-4.9c-3.2,0.6-6.5,1.2-9.7,1.9c-3.4,0.8-5,3.4-4.2,6c0.9,2.9,3.7,3.7,7,3.1
			c3.6-0.6,7.5-1.2,11.1-0.6c7.8,1.2,14.3,5.2,19.8,10.9C938.5,253.1,941.7,255.8,944.3,259.1z"/>
		<path class="st0" d="M1013.8,282.3c-3.2-7.2-6.4-14.4-9.8-21.5c-2.7-5.8-5.4-11.5-8.4-17.1c-4.4-8.1-8.9-16.1-13.6-24
			c-2.1-3.1-4.4-6.1-6.9-8.9c-4.1-4.8-7.9-10-12.5-14.3c-5.1-4.7-10.6-9.1-16.3-13c-4.7-3.3-9.6-6.2-14.6-8.8
			c-13.7-7.1-28.9-10.8-44.3-10.8c-6,0.7-11.9,1.4-17.9,2.1c-3.9,0.5-5.1,2.2-4.6,6.1c0.4,2.7,2.3,3.9,5.9,3.4
			c2.9-0.4,5.8-0.9,8.8-1.3c8.8-1.1,17.5,0.3,26.2,1.3c10.5,1.2,19.6,6,28.3,11c8.1,4.7,15.9,10.3,22.1,17.7
			c4,4.6,8.6,8.8,12.4,13.6c7.4,9.4,13.7,19.5,18.7,30.4c5.7,12.2,11.3,24.4,17,36.5c0.6,1.4,1,2.9,1.7,4.2c1.2,2.2,3.8,3.3,6.2,2.4
			c2.2-0.8,3.4-3,2.8-5.7C1014.7,284.4,1014.3,283.3,1013.8,282.3z"/>
		<path class="st0" d="M1031.7,423.5c1.4-0.9,2.3-2.7,3.4-4.1c-0.8-1.5-1.1-2.8-1.9-3.5c-4.5-3.8-9.2-7.4-13.7-11.1
			c-1.4-1.1-2.8-2.2-4-3.5c-4.2-4.8-8.2-9.6-12.2-14.5c-4.9-6.1-9.7-12.4-14.5-18.6c-1.2-1.5-2.4-2.9-3.5-4.4
			c-4.2-5.8-8.3-11.6-12.5-17.4c-5.8-8-11.8-16-17.5-24.1c-3.8-5.3-6.9-11.2-11.1-16.1c-4.9-5.7-10.5-10.8-16-15.9
			c-2.9-2.9-6.7-4.9-10.7-5.8c-2.4-0.4-4.3,0.2-5.5,2.3c-1.1,2.2-0.3,4.9,1.7,6.2c1.4,0.9,3.1,1.5,4.5,2.4c1.9,0.9,3.8,2,5.5,3.3
			c6.4,5.7,12.1,12.1,17,19.2c5.3,7.7,10.6,15.5,16,23.2c4.1,5.8,8.4,11.4,12.7,17c7.7,10.2,15.3,20.5,23.1,30.6
			c4.4,5.7,8.5,11.6,13.5,16.6c6.3,6.3,13.4,11.8,20.2,17.6C1027.7,424.2,1029.8,424.8,1031.7,423.5z"/>
		<path class="st0" d="M905.8,454.6c5.9,7.4,12.2,14.5,18.6,21.5c5.5,6.1,11.4,11.8,17.1,17.7c1.2,1.2,2.5,2.3,3.8,3.3
			c3.6,2.9,7,6.1,10.9,8.7c5.9,3.9,11.9,7.5,18,11.1c5,2.9,10,5.5,15.1,8.1c5.4,2.8,10.9,5.4,16.3,8.1c2.2,1.1,4.5,2.1,6.7,3.1
			c2.8-0.4,3.9-2.1,4.4-4.2c0.6-2.4-1.2-5.2-3.6-6.2c-2.8-1.2-5.5-2.5-8.2-3.9c-3.8-1.9-7.4-4-11.2-5.8c-11.1-5.1-22-10.5-31.6-18
			c-5.5-4.3-11.3-8.5-16.4-13.3c-5.8-5.4-11-11.5-16.4-17.3c-1.6-1.7-3.2-3.3-4.7-5.1c-4.3-5.4-8.5-10.8-12.7-16.2
			c-2.5-3.3-4.9-6.6-7.3-9.9c-2.7-3.7-5.1-7.6-8-11.1c-2-2.4-4.4-2.3-6.6-0.5c-2,1.6-2.3,3.8-0.5,6.4c1.6,2.4,3.4,4.6,5,7
			C898.2,443.6,901.7,449.4,905.8,454.6z"/>
		<path class="st0" d="M691,336.7c-3.1,0-5.1,2.2-4.9,5.7c0.7,13.3,0.9,26.8,2.6,40c1.7,12.5,4.7,24.8,7.9,37
			c1.7,6.6,5.2,12.7,7.6,19.2c3.5,9.4,9.3,17.5,14.5,25.9c1.6,2.7,3.8,4.8,5.7,7.5s4.6,3.3,7.1,1.5c2.2-1.7,2.6-4.9,0.9-7.2
			c-5.3-7.7-11.1-15-15.4-23.2c-5.7-10.5-10-21.6-13.1-33.1c-4-15.1-6.5-30.5-7.6-46.1c-0.4-7.2-0.6-14.5-0.8-21.8
			C695.4,338.5,693.9,336.7,691,336.7z"/>
		<path class="st0" d="M1113.9,446c-7-6.7-14.1-13.1-21.1-19.8c-4.1-4-8.3-7.9-11.6-12.5c-6.2-8.6-11.8-17.7-17.6-26.6
			c-5.4-8.1-10.8-16.2-16.1-24.4c-2.8-4.3-5.2-8.7-7.9-13.1c-1.5-2.4-4-3.2-6.2-1.9c-2.3,1.2-3.4,4-2.3,6.2c2,3.8,4.2,7.6,6.4,11.1
			s4.8,6.9,7,10.5c4,6.3,7.9,12.8,11.9,19.1c2.5,4,5.4,7.8,7.9,11.8c4.9,8.1,10.7,15.6,17.3,22.5c2.1,2.1,4,4.4,6.1,6.4
			c5.4,4.9,10.9,9.5,16.2,14.4c3.5,3.2,6.6,6.8,9.8,10.3c1.4,1.6,3.4,1.8,4.8,1s2.5-2.5,3.8-3.9c-0.6-1.3-1.3-2.6-2.1-3.8
			C1118.3,450.7,1116.2,448.3,1113.9,446z"/>
		<path class="st0" d="M995.3,404.6c-4.8-5.3-9.3-10.8-14-16.2c-2-2.4-4.3-4.5-6.3-6.9c-4-5-7.8-10-11.7-15
			c-5.8-7.3-11.7-14.4-17.4-21.8c-3.3-4.2-6.1-8.7-9.1-13.2c-4-5.9-7.8-12-11.8-17.9c-0.8-1.1-2.1-1.8-3.5-1.9
			c-1.7,0.3-3.3,1.1-4.5,2.3c-1.5,1.4-1,3.3,0.1,4.9c4.1,6.2,8,12.5,12.3,18.5c6.2,8.8,12.5,17.4,18.8,26.1c1.9,2.5,4,4.8,6,7.2
			c3.9,4.9,7.5,10,11.6,14.7c6.1,7.1,12.4,14,18.7,21c4.8,5.4,9.7,10.9,14.8,16.2c1.3,1.1,3.1,1.6,4.8,1.2c1.5-0.6,2.5-2.7,3.8-4.2
			c-0.7-1.3-1.4-2.6-2.3-3.8C1002.3,411.9,998.7,408.4,995.3,404.6z"/>
		<path class="st0" d="M574.3,484.6c-12.8-3.7-25.6-7-39-7.2c-2.6,0-5.2,0-7.8,0c0,0-0.1,0-0.1,0c-2.7,0-4.9,2.2-4.8,4.9
			c-0.1,2.8,1.7,4.7,4.8,4.6c14.1-0.4,27.7,2.4,41.3,5.9c13.6,3.4,26.9,8.3,39.4,14.6c7.9,4,15.3,9.2,22.9,13.9
			c0.9,0.7,1.9,1.3,2.9,1.9c1.7,0.6,3.5,0.2,4.8-1c1.9-1.8,2-4.8,0.2-6.7c-2-1.6-4-3.2-6.2-4.7c-12.9-8.7-26.8-15.8-41.5-21
			C585.7,487.8,580,486.2,574.3,484.6z"/>
		<path class="st0" d="M573.6,369.2c-2.5-0.3-4.8,1.3-5.5,3.7c-3.3,9.9-6.5,19.9-10.2,29.7c-1.5,4.2-3.5,8.2-6.2,11.8
			c-5.5,7.2-11,14.4-17.5,20.6c-7.5,7.3-16,13.4-24.2,20c-2.2,1.8-2.8,4.3-1.2,6.5c0.1,0.1,0.2,0.3,0.3,0.4c1.5,1.9,4.3,2.3,6.2,0.8
			c8.3-6.6,16.9-12.9,24.7-20.1c6.1-5.7,11.3-12.4,16.6-18.9c3-3.5,5.5-7.3,7.5-11.4c3.5-7.9,6.5-15.9,9.4-24
			c1.7-4.6,2.7-9.4,3.9-13.4C577.4,371.9,575.5,369.5,573.6,369.2z"/>
		<path class="st0" d="M954.4,224.1c0.8,0.7,2.5,1.3,3.3,0.9c1.6-0.7,3-2,3.9-3.5c1.1-2-0.2-3.9-1.7-5.2c-4.6-4-9.1-8-13.9-11.7
			c-4.8-3.7-9.8-7.1-15-10.3c-7.4-4.4-15.1-8-23.6-10c-11.2-2.6-22-2.3-32.7,1.6c-2.1,0.6-3.5,2.5-3.4,4.6c0,3.8,3.1,5.6,7.3,4.4
			c4.7-1.3,9.3-2.4,14-3.5l0.1,0.8c15.7-0.1,29,6.6,41.5,15C941.4,212.1,947.6,218.5,954.4,224.1z"/>
		<path class="st0" d="M850.5,201.6c-5.1,4.9-10.6,9.5-15,15.2s-8.6,11.8-11.3,18.8c-4.5,12-6.9,24.6-7.1,37.4c0,0.6,0,1.9-0.1,3
			c0,3.4,1.9,5.5,4.9,5.6c2.8,0.1,4.4-1.9,4.5-5.4c0.4-11.2,1.4-22.2,5.1-33c3.5-10.3,9.7-18.6,16.9-26.5c2.6-2.9,5.6-5.5,8.3-8.3
			c0,0,0.1-0.1,0.1-0.1c1.7-1.7,1.6-4.5-0.1-6.2c-0.1-0.1-0.2-0.2-0.3-0.3C854.8,200,852.1,200,850.5,201.6z"/>
		<path class="st0" d="M740.9,431.6c1.5,5,2.5,10.1,4.6,14.8c3,6.9,6.8,13.6,10.3,20.3c2.8,5.2,5.8,10.3,8.6,15.5
			c0.9,1.6,2.7,2.5,4.5,2c3.9-0.6,5.4-4.6,3.2-8.3c-4.3-7.4-8.6-14.8-12.8-22.3c-1.9-3.3-3.5-6.8-4.7-10.5c-2.8-8.6-5.3-17.3-8-25.9
			c-0.4-1.8-1.9-3.1-3.7-3.4c-4,0-6.2,2.7-5.4,6.2C738.5,423.9,739.8,427.7,740.9,431.6z"/>
		<path class="st0" d="M618.8,382.9c0.8-2.5-0.6-5.2-3.2-6c-0.1,0-0.2-0.1-0.3-0.1c-2.4-0.7-4.8,0.7-5.5,3.1
			c-1.3,4.6-2.2,9.3-3,12.5c1.4,13.4,2.2,25.1,6.4,36.2c2.4,6.3,5.2,12.5,7.9,18.8c0.7,1.9,2.7,3.1,4.7,2.9c2.1-0.1,3.8-1.6,4.1-3.7
			c0.1-1.5-0.2-3-0.9-4.3c-3.7-7.3-6.7-15-8.7-23c-1.1-4.7-1.9-9.5-2.5-14.3c-1-7.3-2.2-14.5,0.9-21.7
			C618.8,383.1,618.8,383,618.8,382.9z"/>
		<path class="st0" d="M1075.3,476.3c11.2,5.7,22.5,11.5,33.8,17.1c5,2.5,10.2,4.4,15,7.2c3,1.7,6.5,0.6,7.7-1.8
			c1.3-2.8,0.2-5.1-3.3-6.8c-5.1-2.4-10.2-4.8-15.2-7.3c-9.4-4.8-18.7-9.7-28.1-14.5c-4.9-2.5-9.8-4.8-14.7-7.2
			c-0.9-0.3-1.9-0.6-2.8-0.9c-1,0.8-2.4,1.4-3.2,2.5c-0.1,0.1-0.2,0.3-0.3,0.4c-1.2,2.4-0.3,5.3,2.1,6.6
			C1069.2,473.4,1072.3,474.7,1075.3,476.3z"/>
		<path class="st0" d="M599.1,477.4c-2-1.1-4.2-2-6.3-3.1c-12.4-6.7-26.1-10.6-40.1-11.4c-0.6,0-1.4,0-2.2,0
			c-2.5,0.2-4.6,2.3-4.6,4.4c0,2.5,1.8,4.6,4.3,5c0.8,0.1,1.6,0.1,2.4,0.1c8.2,0.4,16.2,2.1,23.8,5c6.3,2.5,12.3,5.7,18.5,8.5
			c2.6,1.2,5.6,0.3,6.6-1.7C602.7,481.7,601.8,478.9,599.1,477.4z"/>
		<path class="st0" d="M893.2,256.1c-2.7,2.3-3.3,5.7-1.2,8c1.9,2.1,5.2,1.8,7.6-0.6c5.9-6.1,13.1-7.7,20.9-4.8
			c3.7,1.4,7,3.9,10.3,6.1c2.6,1.7,5.9,1.9,7.7,0s1.3-5.2-1.3-7.3c-7-6.4-16.2-9.8-25.7-9.7C905.4,247.7,899,251,893.2,256.1z"/>
		<path class="st0" d="M568,448.1c-2.4-0.1-5.5,1.2-8.2,3.4c0,0-0.1,0-0.1,0.1c-1.9,1.4-2.4,4.2-0.9,6.1c1.3,2,3.7,2.7,5.9,1.8
			c5.2-2.6,6.5-2.4,10.8,1.7c1.9,1.7,4.7,1.7,6.6,0c0.1-0.1,0.1-0.1,0.2-0.2c1.8-1.6,1.9-4.4,0.3-6.3
			C578.9,450.5,573.6,448,568,448.1z"/>
		<path class="st0" d="M803.9,8.4c30.5,0.3,57.4,4,83.2,14c12.2,4.7,24.1,10,35.7,16c11,5.7,21.8,11.9,32.7,17.9
			c3.8,2.1,7.6,4.1,11.4,6c0.1,0.1,0.2,0.1,0.3,0.1c2.5,1.3,5.5,0.3,6.7-2.1c1.3-2.5,0.4-4.9-2.4-6.4c-3.5-1.9-7.1-3.8-10.7-5.7
			c-9.2-5-18.4-10-27.6-15c-4.1-2.2-8-4.8-12.2-6.8c-8.8-4.1-17.8-8-26.8-11.6c-7.5-2.9-15-6.1-22.8-7.9
			c-11.3-2.7-22.8-4.8-34.3-6.3c-15.1-2-30.5-3-45.6-1.2c-11.3,1.6-22.6,3.9-33.6,7.1c-9.8,2.7-19.5,6.1-28.8,10.1
			c-9.3,4-18.3,8.7-26.9,13.9c-10,5.9-19.7,12.3-29,19.2c-11.8,8.8-23,18.4-34.4,27.8c-2.8,2.3-5.3,4.8-7.9,7.2
			c-4.9,4.4-9.9,8.6-14.6,13c-5.3,5-10.4,10.3-15.7,15.3c-4.9,4.5-10.1,8.6-15,13c-7,6.4-13.8,13.1-20.9,19.3
			c-11.1,9.7-20.1,21.1-28.8,32.9c-4.3,5.8-8.2,11.9-12.2,17.9c-1.6,2.4-1,5.7,1.4,7.4c1.8,1.3,4.7,0.6,6.3-1.7
			c1.4-2,2.5-4.1,3.9-6.1c5.4-7.5,10.7-15.2,16.4-22.5c4.5-5.8,9.4-11.3,14.5-16.5c4.5-4.6,9.7-8.7,14.5-13
			c6.3-5.7,12.4-11.3,18.8-17.2c6.4-5.8,12.8-11.7,19.1-17.5c6.1-5.6,11.9-11.5,18.2-17c11.1-9.6,22.4-18.9,33.7-28.2
			c5.4-4.5,11-8.8,16.9-12.7c8.8-5.7,17.8-10.9,26.8-16.2c4.8-2.9,9.9-5.5,15-7.9c13.3-5.8,27-10.5,41.1-13.8
			C782.4,10.7,794.3,7.7,803.9,8.4z"/>
		<path class="st0" d="M581.2,123.9c3.2-3.8,6.4-7.7,9.9-11.2c5.3-5.4,10.7-10.7,16.5-15.7c6.3-5.5,13-10.5,19.5-15.8
			c6.1-5,12.1-10,18.1-15.1c0.9-0.8,1.4-2.1,2.4-3.7c-1.2-1.6-2-3.6-3.5-4.2c-1.7-0.5-3.4-0.2-4.9,0.7c-2.5,1.8-4.6,4.2-7,6.2
			c-5.3,4.2-10.7,8.2-16,12.4c-5,4-9.8,8.2-14.8,12.4c-10.1,8.6-19.8,17.6-27.9,28.2c-2,2.6-2,5.8-0.2,7.2
			C575.7,127,579,126.4,581.2,123.9z"/>
	</g>
</g>
</svg>
