<svg xmlns="http://www.w3.org/2000/svg" xmlns:xlink="http://www.w3.org/1999/xlink" id="Camada_1" x="0px" y="0px" viewBox="0 0 1920 1080" style="enable-background:new 0 0 1920 1080;" xml:space="preserve"><style type="text/css">	.st0{fill:#FFFFFF;}	.st1{fill:#B1B1B1;}	.st2{fill:#B0B0B0;}	.st3{fill:#B1B1B1;stroke:#FFFFFF;stroke-miterlimit:10;}	.st4{fill:#C50000;}	.st5{fill:#020202;}	.st6{fill:#030303;}</style><g>	<g>		<path class="st0" d="M867.4,794.5c8.5-15.6,17-31.2,25.4-46.9c3.8-7.2,7.4-14.5,11-21.7c6.5-11.9,13-23.7,19.4-35.6   c5.7-9.8,11.4-19.6,16.9-29.5c5.3-9.6,10.3-19.4,15.6-29c0.8-1.4,2.2-2.6,3.6-3.5c13.3-8.8,26.6-17.4,39.9-26.2   c2.5-1.6,4.6-3.6,7-5.4c5.3-3.9,10.8-6.2,17.9-6.2c37.4,0.4,74.8,0.2,112.2,0.1c4.1,0,6.1,1.2,7.5,4.9c4.1,10.6,8.6,21,12.7,31.6   c0.6,1.5,0.6,3.8-0.1,5.2c-7.9,14.7-16.1,29.3-24,44c-6.2,11.5-12.1,23.1-18.1,34.7c-7.2,13.2-14.3,26.3-21.5,39.5   c-3.2,5.1-6.4,10.1-9.9,15.7c-15.7,0-32.1,0-48.9,0c3.8-8.2,7.6-16.1,11.3-24.1c5-8.5,10.1-17,15.6-26.3   c-30.9,0-60.2,0.3-89.5-0.2c-8.3-0.1-14.4,0.9-16.6,10.1c-0.5,2.1-2.1,4-3.2,6c-6.1,10.7-12.1,21.4-18.3,32   c-1.1,1.9-2.9,3.9-4.8,4.7c-11.1,5-22.3,9.5-33.5,14.3c-9.2,4-18.3,8.2-27.5,12.3C867.7,794.8,867.5,794.7,867.4,794.5z    M1107.8,629.6c-33,0-65.1-0.1-97.2,0.2c-1.9,0-4.7,1.7-5.7,3.4c-5.1,8.5-9.7,17.2-14.4,25.9c-3.1,5.7-6,11.6-9.1,17.6   c1.2,0.3,1.7,0.5,2.3,0.5c31.7,0,63.4,0.1,95.1-0.1c1.9,0,4.5-1.9,5.5-3.6c6-10.2,11.6-20.5,17.2-30.9   C1103.7,638.5,1105.5,634.4,1107.8,629.6z"></path>		<path class="st0" d="M334.1,591.1c0,22.8,0,45.4,0,68c0,3.8-0.7,7.7-0.3,11.5c0.8,6.4-2.1,10.7-6.7,14.7   c-12.2,10.7-24.2,21.5-36.1,32.6c-16.8,15.6-33.5,31.5-50.2,47.1c-1,0.9-2.8,1.3-4.1,1.3c-54.1,0.1-108.3,0.1-163.2,0.1   c0.7-2,0.9-3.5,1.7-4.9c10.1-18.3,20.3-36.5,30.4-54.8c15.7-28.6,31.4-57.3,47-86c4.7-8.7,9.1-17.5,13.9-26c1-1.8,3.6-3.7,5.4-3.7   c53.6-0.2,107.2-0.1,160.7-0.1C332.8,590.7,333.2,590.8,334.1,591.1z M279.6,629.6c-2.1,0-4.2,0-6.2,0c-20.7,0-41.5,0.6-62.2-0.2   c-10.5-0.4-16.2,2.3-21.2,12.5c-12.8,26.1-27.6,51.1-41.6,76.6c-1.4,2.6-2.5,5.3-4.1,8.6c23.4,0,46-0.3,68.6,0.2   c9.3,0.2,16.5-1.2,23.5-8.7c11.6-12.3,25-22.9,37.4-34.5c2.5-2.3,5.4-5.7,5.5-8.7C280,660.5,279.6,645.3,279.6,629.6z"></path>		<path class="st0" d="M1343,740.5c-0.2-0.7-0.2-1.6-0.6-2.2c-6-8.8-3.3-16.3,1.6-24.9c14.3-25,27.6-50.6,41.6-75.8   c2.2-4,5.6-7.7,9.3-10.3c13.4-9.3,27.1-18,40.7-27.1c1.3-0.9,2.2-2.5,3.6-3.3c5.2-3.5,10.2-6.5,17.2-6.4   c35.1,0.4,70.2,0.2,105.3,0.2c2.3,0,4.6-0.4,6.8-0.5c4.8,0.1,9.6,0.4,14.4,0.1c3.5-0.2,5.1,1,6.3,4.3c4.2,11.2,8.8,22.4,12.9,33.6   c0.6,1.6,0,4-0.8,5.7c-2.7,6-5.8,11.9-8.7,17.8c-0.8,0.8-1.7,1.5-2.2,2.4c-8.5,15.3-16.9,30.7-25.3,46c-4,7.3-7.8,14.8-11.9,22.1   c-1.4,2.5-3.3,5.1-5.7,6.7c-11.9,8.4-24.1,16.4-36.2,24.6c-4.9,3-10.5,5.2-14.5,9.1c-4,3.8-8,4.3-12.9,4.3   c-25.7-0.1-51.5,0-77.2,0c-16.3,0-32.7,0.1-49-0.1c-1.9,0-4.9-1-5.5-2.3C1348.8,756.5,1346,748.5,1343,740.5z M1553.3,629.6   c-33.4,0-65.6,0.5-97.8-0.3c-11.5-0.3-19.6,1.6-22.6,13.7c-0.1,0.5-0.6,1-0.8,1.5c-10.1,18.3-20.3,36.5-30.4,54.8   c-4.9,8.9-9.5,18-14.2,26.9c0.6,0.5,0.7,0.8,0.8,0.8c36.7,0.1,73.3,0.2,110,0.1c1.4,0,3.5-1.6,4.2-2.9   c5.3-9.6,10.3-19.4,15.6-29.1c9.6-17.5,19.3-34.9,28.9-52.4C1549,638.7,1550.8,634.6,1553.3,629.6z"></path>		<path class="st0" d="M1626.1,590.1c17.5,0.2,34.9,0.7,52.4,0.3c6-0.1,8.1,2.4,9.9,7.3c6.1,16.3,12.6,32.4,19.3,49.3   c3.3-2.1,6.4-3.8,9.4-5.8c7.2-4.8,14.3-9.9,21.6-14.7c13.2-8.8,26.6-17.6,39.8-26.5c1.7-1.1,2.9-2.8,4.6-4   c5.2-3.8,10.6-6,17.4-5.8c16.1,0.6,32.2,0.2,49.5,0.2c-5.1,3.9-9.4,7.5-14.1,10.6c-18.2,12.1-36.6,24-54.8,36   c-10.4,6.9-20.8,13.8-31.1,20.8c-8.6,5.8-17.1,11.9-25.9,17.4c-3.5,2.2-3.9,4.3-2.4,7.9c4.9,11.5,9.5,23.2,14.2,34.8   c5.8,14.2,11.5,28.4,17.3,42.6c0.7,1.7,1,3.5,1.6,5.3c-19.8,0-39.2,0-58.7,0c-7.4-18.5-14.7-37-22.5-56.4   c-5.7,3.9-11.1,7.6-16.6,11.3c-1.6,1.2-3.1,2.6-4.7,3.7c-15.6,10.3-31.7,19.8-46.6,31.1c-12,9.1-24.4,12.4-39.1,11.2   c-11.6-1-23.2-0.2-36.7-0.2c3-2.7,4.7-4.4,6.5-5.7c5.3-3.7,10.7-7.2,16.1-10.8c13.5-8.8,27.1-17.5,40.5-26.3   c0.8-0.5,1.2-1.8,1.8-2.7c1.7-0.8,3.4-1.5,5-2.6c16.9-11,33.9-22,50.8-33.2c3.4-2.2,6.5-5,9.7-7.5c-10.3-25.6-20.4-50.8-30.5-76   C1628.4,598.2,1627.4,594.1,1626.1,590.1z"></path>		<path class="st0" d="M1171.8,762.5c-2.4,2.1-4.5,4.9-7.3,6.2c-10.1,4.7-20.5,8.9-30.7,13.4c-8.7,3.9-17.2,8.1-25.9,12   c-1.4,0.6-3.1,0.4-4.7,0.5l0,0c5.8-10.1,11.6-20.1,17.3-30.2c1.7-3.1,3-6.5,4.4-9.7c7.1-12.9,14.1-25.8,21.2-38.7   c6.6-11.5,13.4-22.9,19.9-34.5c4.5-8.1,8.6-16.5,13-24.7c11.1-20.5,22.3-41,33.5-61.5c1.5-2.7,2.8-4.8,6.8-4.8   c63.6,0.2,127.1,0.1,190.7,0.1c0.5,0,1,0.1,3.2,0.4c-12.1,8-23,15.1-33.8,22.4c-3.4,2.3-6.5,5-9.8,7.5c-8.4,6.3-17.4,9.5-28.5,9.2   c-30.5-0.8-61.1-0.2-91.6-0.4c-4.2,0-6.6,1.3-8.5,5c-3.9,7.8-8.3,15.4-12.5,23c-0.5,0.9-0.7,2-1.1,3.5c40.9,0,81.3,0,121.7,0   c0.2,0.3,0.3,0.7,0.4,1c-7.6,4.8-15.2,9.5-22.7,14.5c-8.3,5.5-16.4,11.4-24.9,16.7c-2.4,1.5-5.6,2.5-8.4,2.5   c-27.1,0.2-54.2,0.2-81.2,0c-3.6,0-5.6,1.1-7.1,4.2c-2.9,5.9-6.3,11.7-9.3,17.5c-0.9,1.8-1.2,3.8-1.7,5.8   C1186.6,736.6,1179.2,749.5,1171.8,762.5z"></path>		<path class="st1" d="M1626.1,590.1c1.2,4,2.3,8,3.8,11.9c10,25.2,20.2,50.3,30.5,76c-3.2,2.5-6.3,5.2-9.7,7.5   c-16.9,11.1-33.8,22.2-50.8,33.2c-1.6,1-3.3,1.7-5,2.6c0-0.6-0.2-1.2,0.1-1.7c6-14.4,5.2-29.1,2.3-43.9c-1.5-8-3.1-16-4.7-24.1   c2.9-5.9,5.9-11.8,8.7-17.8c0.8-1.7,1.3-4.1,0.8-5.7c-4.2-11.3-8.8-22.4-12.9-33.6c-1.2-3.2-2.8-4.4-6.3-4.3   c-4.8,0.2-9.6-0.1-14.4-0.1c-5-8.7-9.3-17.8-15-26c-10.6-15.4-21.5-30.8-33.2-45.4c-11.6-14.3-24.2-27.9-36.7-41.4   c-6.8-7.4-14.8-13.7-21.8-20.9c-19.6-20.2-42-37.2-64-54.4c-11.9-9.4-24.5-17.9-37-26.5c-11.7-8.1-23.6-15.9-35.6-23.5   c-10.8-7-21.8-13.8-32.8-20.5c-11.7-7-23.6-13.7-35.4-20.6c-9.1-5.3-18.2-10.8-27.2-16.8c7.6,2.8,15.4,5.2,22.9,8.3   c19.1,8,38.4,15.5,56.9,24.6c22.2,10.8,43.8,22.9,65.5,34.8c14.5,7.9,28.9,15.9,42.8,24.9c20.2,13.1,40,26.8,59.7,40.8   c10.3,7.3,20.3,15.3,29.9,23.5c9.2,7.9,17.8,16.4,26.6,24.7c8.4,8,17.4,15.4,25.1,24.1c15.5,17.8,30.9,35.7,45.2,54.5   C1612.7,565.3,1618.9,578.1,1626.1,590.1z"></path>		<path class="st0" d="M345.6,766.6c-8.8,0-17.6,0-27.2,0c0.9-2.4,1.4-4,2.1-5.5c9.8-17.8,19.8-35.5,29.5-53.3   c15.8-28.8,31.6-57.6,47.3-86.5c4.7-8.7,9.3-17.4,13.8-26.2c1.5-2.9,3-4.7,6.8-4.7c63.5,0.2,127.1,0.1,190.6,0.1   c0.5,0,1,0.1,2.2,0.3c-5.8,4.2-11,8.2-16.4,11.9c-12.1,8.2-24.2,16.4-36.5,24.2c-2.7,1.7-6.3,2.7-9.5,2.7   c-33.4,0.2-66.8,0.2-100.2,0c-4.5,0-6.9,1.3-8.9,5.3c-3.7,7.5-8,14.7-11.9,22c-0.6,1.1-0.9,2.4-1.5,4.1c41,0,81.4,0,121.7,0   c0.2,0.4,0.3,0.8,0.5,1.1c-6.7,4.3-13.5,8.5-20.2,12.9c-9,6-17.7,12.3-26.9,17.9c-2.9,1.8-6.7,2.8-10,2.8   c-26.7,0.2-53.4,0.1-80.1,0.2c-2.1,0-5.2,1-6.1,2.5c-5.2,9-9.9,18.3-15.3,28.3c15.1,0,29.3,0,43.6,0c1.9,0,3.9,0.7,5.8,1.1   c-0.9,0.2-1.9,0.2-2.8,0.5c-22.2,8.8-44.6,17.4-66.7,26.4C361.4,758.5,353.5,762.7,345.6,766.6z"></path>		<path class="st2" d="M1171.8,762.5c7.4-13,14.8-26,22.2-38.9c11.5,1.3,23,2.5,34.4,4c12.8,1.6,25.5,3.5,38.3,5.2   c16.2,2.2,32.3,4.3,48.5,6.4c7.7,1,15.4,2,23.2,2.7c1.5,0.1,3.1-0.9,4.7-1.3c3,8,5.9,16,9.3,23.8c0.6,1.4,3.6,2.3,5.5,2.3   c16.3,0.2,32.6,0.1,49,0.1c25.7,0,51.5,0,77.2,0c4.9,0,8.9-0.5,12.9-4.3c4-3.9,9.6-6.1,14.5-9.1c6.4-0.3,12.9-0.4,19.3-0.9   c7.3-0.6,14.7-1.5,22-2.3c-5.4,3.6-10.8,7.2-16.1,10.8c-1.9,1.3-3.5,3-6.5,5.7c13.4,0,25.1-0.8,36.7,0.2   c14.7,1.2,27.1-2.1,39.1-11.2c14.8-11.3,31-20.8,46.6-31.1c1.7-1.1,3.2-2.5,4.7-3.7c-1.4,10.8-6.6,20.1-12.8,28.8   c-10.9,15.2-26,24.4-42.9,32c-23.7,10.7-48.4,15.2-73.9,16.5c-21.2,1.1-42.5,1.4-63.8,1.1c-17.9-0.3-35.8-1.7-53.7-3.3   c-19.7-1.8-39.3-4.5-58.9-6.7c-10.6-1.2-21.2-2.1-31.7-3.6c-12.3-1.8-24.4-4.2-36.7-6.2c-14.8-2.3-29.7-4.3-44.5-6.4   c-14.5-2.1-28.9-4.2-43.4-6.4C1187.2,765.5,1179.5,763.9,1171.8,762.5z"></path>		<path class="st1" d="M345.6,766.6c8-3.8,15.8-8.1,23.9-11.5c22.1-9,44.5-17.7,66.7-26.4c0.9-0.3,1.8-0.4,2.8-0.5   c7.7-2.2,15.4-4.6,23.1-6.7c9.1-2.5,18.3-5,27.6-7.1c17.9-4,35.9-7.7,53.9-11.5c12.4-2.7,24.8-5.3,37.2-8   c3.6-0.6,7.1-1.4,10.7-1.8c14-1.4,28-2.7,42-4.1c16.9-1.1,33.8-2.3,50.7-3.3c11.1-0.6,22.1-1.2,33.2-1.2c24.7-0.2,49.5,0,74.2-0.1   c2,0,3.9-0.7,5.9-1.1c16.1,0.3,32.1,0.7,48.2,1c5,0.8,9.9,1.9,14.9,2.4c7.2,0.7,14.4,0.8,21.7,1.2c13.7,0.8,27.3,1.7,41,2.5   c-6.5,11.9-13,23.7-19.4,35.6c-9.6-0.8-19.3-1.4-28.9-2.4c-14.2-1.4-28.4-3-42.6-4.5c-2.4-0.2-4.9,0.1-7.4,0.2   c-15.7-0.8-31.4-1.7-47.1-2.5c-5.2-0.8-10.4-2-15.6-2.2c-28.4-0.6-56.7-1.2-85.1-1.1c-19.3,0.1-38.6,1.4-57.9,2.2   c-1,0-2,0.8-3,1.3c-17.2,1.5-34.4,3-51.5,4.5c-6.2,0-12.5-0.3-18.6,0.3c-4.9,0.5-9.7,1.9-14.5,3.1c-1.4,0.3-2.5,1.3-3.8,2   c-1.5,0.1-3.1,0.1-4.6,0.4c-28.2,5.7-56.4,11.3-84.5,17.3c-10.3,2.2-20.5,4.8-30.5,8c-12.5,4.1-24.8,9-37.2,13.5   c-14.1,0.7-26,8.4-39,12.7c-2.9,1-5.6,2.2-8.9,2.5c1.2-0.8,2.4-1.7,3.6-2.3c5.4-2.9,10.8-5.6,16.1-8.7   C344.2,769.6,344.7,767.8,345.6,766.6z"></path>		<path class="st0" d="M845.8,684.3c-16.1-0.3-32.1-0.7-48.2-1c0.6-2.1,0.9-4.5,1.9-6.3c8-14.9,16.2-29.7,24.3-44.6   c0.2-0.5,0.2-1,0.5-2.5c-4.2,0-8.1,0-12,0c-10.6,0-21.1-0.2-31.7,0.1c-3.7,0.1-5.3-1.1-6.5-4.5c-4.2-11.4-8.7-22.6-13.3-34.4   c73.6,0,146.7,0,220.3,0c-4.3,3.3-8,6.6-12.1,9.3c-12.9,8.8-25.8,17.6-39,25.8c-3.5,2.2-8.1,3.3-12.2,3.5   c-12.7,0.4-25.3,0.3-38,0.1c-3.3,0-5.2,1-6.7,3.9C864,650.6,854.9,667.4,845.8,684.3z"></path>		<path class="st1" d="M1006.9,373.9c7.9-53.8-9.4-99.2-46.1-137.7c-15.4-16.2-33.8-28.7-54.3-39.7c-3,23,6.7,42.1,11.1,62.7   c-9.7-10.5-30.1-65.5-30-83.1c8.3,2.3,16.5,4.2,24.5,6.7c11.3,3.6,22.5,7.7,33.8,11.4c8.3,2.8,16.7,5.1,25,8.1   c20,7.1,40,14.3,60,21.6c18.2,6.6,36.3,13.3,54.3,20.3c12.6,4.9,25,10.3,37.5,16c-7.3-1-14.6-2.5-21.9-2.9   c-14.1-0.9-28.4-2.8-42.3-1.4c-15.7,1.6-20.9,10.4-22.2,27.5c-1.7,22.1-2.4,44.5-10.6,65.5c-2.4,6.2-6.7,11.8-10.3,17.5   c-1.9,3-4.4,5.6-6.6,8.4C1008.1,374.4,1007.5,374.1,1006.9,373.9z"></path>		<path class="st0" d="M564.8,721.5c17.2-1.5,34.4-3,51.5-4.5c-1,3.2-1.9,6.3-3.1,10c46.6,0,93.2,0,141.3,0c-2.5,1.8-3.7,2.8-5,3.6   c-15.8,10.4-32.1,20.3-47.3,31.5c-5.1,3.8-9.6,4.3-15,4.3c-46.2,0-92.5,0-138.7,0c-2.1,0-4.2,0-7.2,0c1-2.3,1.6-4.1,2.5-5.8   c6.5-11.8,13.2-23.5,19.7-35.3C564.2,724,564.4,722.7,564.8,721.5z"></path>		<path class="st0" d="M633.5,689c-14,1.3-28,2.6-42,4.1c-3.6,0.4-7.1,1.2-10.7,1.8c3.4-6.9,6.6-14,10.3-20.8   c13.4-24.7,27.4-49,40.3-73.9c3.6-6.9,8.1-10.9,15.1-13.9c17.8-7.6,35.3-16,52.9-24.1c0.8,0.1,1.6,0.2,2.4,0.3   c-3.2,6.2-6.3,12.5-9.7,18.6c-14,25.4-28.1,50.8-42,76.3C644.4,667.8,639,678.4,633.5,689z"></path>		<path class="st3" d="M868.1,286c-0.7,1.3-1.2,2.9-2.2,3.9c-17,17.2-30.2,37.2-41.8,58.1c-8.5,15.4-13.6,32.1-17.3,49.3   c-1.7,8-6.4,13.7-13.7,17.2c-10.2,4.8-20.3,9.7-30.6,14.2c-17.9,7.9-35.7,15.9-53.8,23.2c-17.6,7-35.5,13.3-53.3,19.7   c-10.7,3.8-21.5,7-32.2,10.8c-1.4,0.5-3.2,3.3-2.8,4.5c2.8,9.6-1.7,15.7-9,20.8c-5.1,3.5-10.2,7.1-15.6,10.9   c0.6,1.8,1.2,3.6,1.8,5.4c-18.3-2.5-31.5-13.4-44.8-26.9c5.6-2.5,10.4-5.4,15.6-6.9c17.5-4.9,35.4-8.7,52.8-14.2   c21-6.6,41.7-13.9,62.2-21.8c13.8-5.3,27.1-11.9,40.3-18.4c14.3-7.1,28.7-14.2,42.4-22.5c9.7-5.9,18.2-12.9,22.7-24.9   c9.3-24.5,23.4-46.6,40.6-66.3c9.5-10.9,20.6-20.3,31-30.4c2.2-2.1,4.5-4.1,6.8-6.2C867.5,285.6,867.8,285.8,868.1,286z"></path>		<path class="st1" d="M1269.2,536.2c-4.2-1.7-8.2-3.6-12.5-5c-13.7-4.7-27.3-9.6-41.2-13.6c-15.2-4.5-30.5-8.5-46-11.9   c-9.8-2.2-19.9-3.4-29.9-4c-32.6-2-65.3-3.4-95.8-4.9c10.6-5,24.3-7.3,38.2-7.9c26.8-1.1,53.6-1.7,80.3-2.3   c4.5-0.1,9,0.5,15.3,0.9c-1.8-2.9-2.7-5.2-4.3-6.9c-9.6-10-21.6-16-34.5-20.4c-9.7-3.4-19.6-6.5-29.3-9.7c0.1-0.6,0.2-1.1,0.3-1.7   c9.9,1.9,20,3.2,29.7,5.8c18.5,4.9,37.3,9.3,55.1,16.3c13.8,5.4,26.7,13.8,39.1,22c7.7,5.1,14.4,11.9,20.4,18.9   c6.3,7.3,11.1,15.9,16.6,23.9C1270.2,535.8,1269.7,536,1269.2,536.2z"></path>		<path class="st1" d="M701.8,562.5c-0.8-0.1-1.6-0.2-2.4-0.3c-3.4-1-6.7-2.2-10.1-3.1c-11.3-3.2-22.7-6.3-33.8-10.3   c8.2,1.2,16.4,2.9,24.7,3.3c12.9,0.8,26.1,2.6,38.6,0.5c20.3-3.4,40.3-9.1,60.2-14.7c15.8-4.4,31.2-10.4,47-15   c7.2-2.1,14.8-2.6,22.4-3.1c-20,5.7-40.7,9.5-57.9,22c0.1,0.7,0.1,1.3,0.2,2c5.8,0,11.5,0.2,17.2,0c10.5-0.6,20.9-1.9,31.4-2.1   c15.5-0.4,31.1-0.8,46.6,0.1c26.8,1.5,53.5,3.9,79.2,12.6c7.6,2.6,14.6,6.7,21.9,10.2c-0.2,0.5-0.3,0.9-0.5,1.4   c-3.7-0.9-7.4-1.6-11-2.7c-22.5-7-45.5-11.2-69.2-11.3c-22.2-0.1-44.5-1.4-66.6-0.8c-18.6,0.5-37.5,1.4-55.7,4.8   c-20.4,3.9-40.8,5.7-61.5,6.4c-5.1,0.2-10.2-0.8-15.4-1C705.4,561.4,703.6,562.1,701.8,562.5z"></path>		<path class="st0" d="M777.9,716.7c15.7,0.8,31.4,1.7,47.1,2.5c-0.3,1.7-0.3,3.5-1,4.9c-7.3,13.7-14.8,27.4-22.4,41   c-0.8,1.5-2.9,2.4-4.6,3.1c-11,4.8-22.1,9.2-33,14.2c-9.4,4.3-18.5,9-28.7,12.8c2.6-5,5-10.2,7.8-15.2   c10-18.2,20.1-36.3,30.1-54.4C774.8,722.7,776.3,719.7,777.9,716.7z"></path>		<path class="st0" d="M371.1,766.2c12.4-4.5,24.6-9.5,37.2-13.5c10-3.2,20.2-5.9,30.5-8c28.1-6,56.3-11.6,84.5-17.3   c1.5-0.3,3-0.3,4.6-0.4c0.9,0.1,1.9,0.2,3.5,0.4c-1.6,1.1-2.7,1.9-3.8,2.7c-16,10.5-32.4,20.5-47.8,31.8c-5.4,4-10.3,4.5-16.1,4.5   C432.8,766.2,401.9,766.2,371.1,766.2z"></path>		<path class="st1" d="M891.6,253.2c-6.7-4.5-13.7-8.6-20.1-13.4c-14.2-10.8-28.5-21.5-41.8-33.2c-10.4-9.1-19.5-19.6-29.1-29.6   c-0.9-0.9-1.3-2.3-2.5-4.5c13.6,2.5,26.1,4.8,38.7,7.3c9.7,1.9,19.4,4.1,29.1,6.4c1.5,0.4,3.4,1.6,3.9,2.9   c7.6,21,15,42.1,22.4,63.1c0.1,0.2,0,0.4,0,0.6C891.9,252.9,891.8,253.1,891.6,253.2z"></path>		<path class="st2" d="M951.9,731.6c1.1-2,2.7-3.9,3.2-6c2.1-9.2,8.2-10.2,16.6-10.1c29.3,0.5,58.5,0.2,89.5,0.2   c-5.5,9.3-10.6,17.8-15.6,26.3c-11.8-1.3-23.7-2.5-35.5-3.8c-10.7-1.3-21.4-2.9-32.1-4.1C969.3,733,960.6,732.4,951.9,731.6z"></path>		<path class="st1" d="M1034.4,510c24.4,3,61.9,26.8,73.4,63.3c-18.8-11.4-35.8-24.1-57.1-27.2c-20.6-3-41.2-5.9-62.1-9   c10.1-0.8,20.1-2.5,30-2.1c12.7,0.5,25.4,2.8,38.1,4.1c3.6,0.4,7.2,0.1,11.4,0.1c0.2-6.5-4.1-10-8.1-12.9   C1051.5,520.3,1042.4,515.1,1034.4,510z"></path>		<path class="st2" d="M1146,715.9c-7.1,12.9-14.1,25.8-21.2,38.7c-10.6-1.4-21.2-2.8-31.8-4.2c7.2-13.2,14.3-26.3,21.5-39.5   C1125,712.6,1135.5,714.3,1146,715.9z"></path>		<path class="st4" d="M825.8,421.7c8.2-6,15-14.1,25.7-16.2c3.9-0.8,7.9-1.8,11.8-1.8c22.1-0.2,44.2-0.2,66.2-0.2   c1.2,0,2.4,0.4,3.7,0.5c0.1,0.6,0.1,1.1,0.2,1.7c-4.8,0.8-9.5,1.6-14.3,2.4c-14.5,2.5-29,5.2-43.6,7.5   c-15.7,2.4-31.4,4.4-47.1,6.5c-0.8,0.1-1.7-0.4-2.6-0.6C825.9,421.6,825.8,421.7,825.8,421.7z"></path>		<path class="st4" d="M752.8,504.1c-1.7-0.3-3.7-0.1-4.9-1c-2.3-1.6-4.2-3.8-6.2-5.7c2.4-2.1,4.5-5.1,7.3-6   c2.6-0.9,6.3-0.3,8.7,1.1c2.1,1.2,4.7,5.7,4.1,6.6c-1.9,2.6-5.2,4.1-8,6.1C753.5,504.8,753.2,504.5,752.8,504.1z"></path>		<path class="st4" d="M703.5,494.2c-4.3-2.5-7.5-4.1-10.4-6.3c-0.5-0.4,0.1-3.7,0.8-3.9c3.6-1.1,7.4-2.6,11-2.2   c2.4,0.3,4.4,3.6,6.7,5.5C709,489.4,706.5,491.5,703.5,494.2z"></path>		<path class="st4" d="M736.6,526.7c-3.8-0.8-7.7-1.5-11.5-2.5c-0.3-0.1,0-4.4,0.5-4.5c3.2-0.6,6.7-1.2,9.9-0.6   c1.2,0.2,1.9,3.7,2.8,5.6C737.7,525.3,737.1,526,736.6,526.7z"></path>		<path class="st4" d="M697.2,503.4c4.6-0.3,9-0.7,14.1-1c-0.5,3.3-0.8,5.8-1.2,8.8C704.8,510,698.8,511.3,697.2,503.4z"></path>		<path class="st1" d="M869.5,283.3c0.1,0.1,0.4,0.3,0.4,0.4c-0.1,0.3-0.3,0.6-0.5,0.9c-0.2-0.1-0.4-0.3-0.4-0.4   C869.1,283.9,869.3,283.6,869.5,283.3z"></path>		<path class="st1" d="M892.1,252.8c0.2,0.6,0.4,1.1,0.7,1.7c-0.4-0.4-0.8-0.8-1.2-1.2C891.8,253.1,891.9,252.9,892.1,252.8z"></path>		<path class="st4" d="M825.9,421.6v0.2l-0.1-0.1L825.9,421.6z"></path>		<path class="st5" d="M867.8,795c-0.3,0.2-0.6,0.5-0.9,0.7c0.1-0.4,0.3-0.8,0.4-1.2C867.5,794.7,867.7,794.8,867.8,795z"></path>		<path class="st6" d="M1103.1,794.6c0.4,0.2,0.8,0.5,1.2,0.7C1103.9,795,1103.5,794.8,1103.1,794.6   C1103.2,794.6,1103.1,794.6,1103.1,794.6z"></path>	</g></g></svg>